<svg xmlns="http://www.w3.org/2000/svg" xmlns:xlink="http://www.w3.org/1999/xlink" width="500" zoomAndPan="magnify" viewBox="0 0 375 374.999991" height="500" preserveAspectRatio="xMidYMid meet" version="1.2"><g id="cfd24c6b7a"><rect x="0" width="375" y="0" height="374.999991" style="fill:#ffffff;fill-opacity:1;stroke:none;"/><path style=" stroke:none;fill-rule:nonzero;fill:#caddff;fill-opacity:1;" d="M 86.898438 21.070312 C 160.476562 -18.042969 259.050781 22.597656 310.410156 67.640625 C 325.089844 80.511719 360.664062 112.617188 369.070312 164.070312 C 379.503906 227.984375 345.34375 305.457031 266.996094 338.597656 C 181.71875 374.664062 86.367188 340.480469 41.738281 284.992188 C 0.00390625 233.097656 8.355469 171.992188 11.339844 150.164062 C 14.84375 124.554688 25.257812 53.84375 86.898438 21.070312 "/><path style=" stroke:none;fill-rule:nonzero;fill:#99b9ff;fill-opacity:1;" d="M 248.996094 52.882812 C 248.996094 26.921875 270.054688 5.878906 296.035156 5.878906 C 322.007812 5.878906 343.070312 26.921875 343.070312 52.882812 C 343.070312 78.839844 322.007812 99.886719 296.035156 99.886719 C 270.054688 99.886719 248.996094 78.839844 248.996094 52.882812 "/><path style=" stroke:none;fill-rule:nonzero;fill:#ffffff;fill-opacity:1;" d="M 258.25 52.886719 C 258.25 32.035156 275.164062 15.132812 296.027344 15.132812 C 316.890625 15.132812 333.808594 32.035156 333.808594 52.886719 C 333.808594 73.734375 316.890625 90.636719 296.027344 90.636719 C 275.164062 90.636719 258.25 73.734375 258.25 52.886719 "/><path style=" stroke:none;fill-rule:nonzero;fill:#99b9ff;fill-opacity:1;" d="M 266.972656 52.882812 C 266.972656 36.84375 279.980469 23.839844 296.03125 23.839844 C 312.082031 23.839844 325.09375 36.84375 325.09375 52.882812 C 325.09375 68.921875 312.082031 81.921875 296.03125 81.921875 C 279.980469 81.921875 266.972656 68.921875 266.972656 52.882812 "/><path style=" stroke:none;fill-rule:nonzero;fill:#ffffff;fill-opacity:1;" d="M 277.269531 52.882812 C 277.269531 42.527344 285.667969 34.132812 296.03125 34.132812 C 306.398438 34.132812 314.796875 42.527344 314.796875 52.882812 C 314.796875 63.238281 306.398438 71.632812 296.03125 71.632812 C 285.667969 71.632812 277.269531 63.238281 277.269531 52.882812 "/><path style=" stroke:none;fill-rule:nonzero;fill:#5479f7;fill-opacity:1;" d="M 285.785156 52.882812 C 285.785156 47.226562 290.375 42.644531 296.03125 42.644531 C 301.691406 42.644531 306.277344 47.226562 306.277344 52.882812 C 306.277344 58.539062 301.691406 63.125 296.03125 63.125 C 290.375 63.125 285.785156 58.539062 285.785156 52.882812 "/><path style=" stroke:none;fill-rule:nonzero;fill:#5479f7;fill-opacity:1;" d="M 253.113281 34.28125 C 253.023438 34.28125 252.933594 34.257812 252.84375 34.21875 C 252.515625 34.074219 252.367188 33.683594 252.515625 33.355469 C 257.371094 22.566406 266.011719 14.003906 276.84375 9.238281 C 277.175781 9.09375 277.558594 9.246094 277.707031 9.574219 C 277.851562 9.90625 277.699219 10.292969 277.371094 10.441406 C 266.835938 15.070312 258.433594 23.402344 253.707031 33.894531 C 253.601562 34.132812 253.359375 34.28125 253.113281 34.28125 "/><path style=" stroke:none;fill-rule:nonzero;fill:#5479f7;fill-opacity:1;" d="M 268.277344 62.175781 C 267.996094 62.175781 267.738281 61.996094 267.652344 61.714844 C 266.765625 58.867188 266.316406 55.894531 266.316406 52.886719 C 266.316406 52.523438 266.609375 52.230469 266.972656 52.230469 C 267.335938 52.230469 267.625 52.523438 267.625 52.886719 C 267.625 55.761719 268.054688 58.601562 268.902344 61.328125 C 269.011719 61.671875 268.816406 62.039062 268.472656 62.144531 C 268.40625 62.164062 268.339844 62.175781 268.277344 62.175781 "/><path style=" stroke:none;fill-rule:nonzero;fill:#5479f7;fill-opacity:1;" d="M 324.5 47.683594 C 324.195312 47.683594 323.921875 47.46875 323.859375 47.160156 C 322.566406 40.851562 319.101562 35.101562 314.101562 30.980469 C 313.824219 30.746094 313.78125 30.335938 314.011719 30.054688 C 314.242188 29.777344 314.652344 29.738281 314.933594 29.96875 C 320.167969 34.28125 323.792969 40.296875 325.144531 46.898438 C 325.21875 47.253906 324.988281 47.597656 324.636719 47.671875 C 324.589844 47.679688 324.546875 47.683594 324.5 47.683594 "/><path style=" stroke:none;fill-rule:nonzero;fill:#5479f7;fill-opacity:1;" d="M 266.972656 53.539062 C 266.609375 53.539062 266.316406 53.246094 266.316406 52.882812 C 266.316406 36.511719 279.644531 23.1875 296.03125 23.1875 C 299.125 23.1875 302.175781 23.660156 305.09375 24.59375 C 305.441406 24.703125 305.628906 25.074219 305.519531 25.417969 C 305.410156 25.761719 305.039062 25.953125 304.695312 25.839844 C 301.90625 24.949219 298.988281 24.496094 296.03125 24.496094 C 280.371094 24.496094 267.625 37.230469 267.625 52.882812 C 267.625 53.246094 267.335938 53.539062 266.972656 53.539062 "/><path style=" stroke:none;fill-rule:nonzero;fill:#5479f7;fill-opacity:1;" d="M 370.542969 68.382812 C 350.402344 72.679688 344.640625 54.632812 317.46875 68.382812 L 317.46875 34.003906 C 337.6875 27.785156 349.9375 37.105469 370.542969 34.003906 L 362.960938 51.03125 L 370.542969 68.382812 "/><path style=" stroke:none;fill-rule:nonzero;fill:#000000;fill-opacity:1;" d="M 316.8125 119.390625 L 315.902344 119.390625 C 315.179688 119.390625 314.59375 118.808594 314.59375 118.085938 L 314.59375 32.042969 C 314.59375 31.316406 315.179688 30.730469 315.902344 30.730469 L 316.8125 30.730469 C 317.535156 30.730469 318.121094 31.316406 318.121094 32.042969 L 318.121094 118.085938 C 318.121094 118.808594 317.535156 119.390625 316.8125 119.390625 "/><path style=" stroke:none;fill-rule:nonzero;fill:#ffffff;fill-opacity:1;" d="M 298.519531 361.128906 L 278.289062 361.128906 L 278.289062 112.582031 L 298.316406 111.167969 L 298.519531 361.128906 "/><path style=" stroke:none;fill-rule:nonzero;fill:#000000;fill-opacity:1;" d="M 278.945312 360.476562 L 297.867188 360.476562 L 297.667969 111.871094 L 278.945312 113.191406 Z M 298.523438 361.785156 L 278.289062 361.785156 C 277.925781 361.785156 277.636719 361.488281 277.636719 361.128906 L 277.636719 112.582031 C 277.636719 112.238281 277.902344 111.953125 278.242188 111.929688 L 298.273438 110.515625 C 298.453125 110.5 298.632812 110.566406 298.765625 110.691406 C 298.898438 110.8125 298.976562 110.984375 298.976562 111.167969 L 299.179688 361.128906 C 299.179688 361.304688 299.109375 361.46875 298.988281 361.589844 C 298.863281 361.714844 298.695312 361.785156 298.523438 361.785156 "/><path style=" stroke:none;fill-rule:nonzero;fill:#99b9ff;fill-opacity:1;" d="M 352.773438 361.128906 L 298.519531 361.128906 C 298.410156 361.128906 298.316406 361.003906 298.316406 360.847656 L 298.316406 111.464844 C 298.316406 111.300781 298.417969 111.175781 298.527344 111.179688 L 352.78125 114.042969 C 352.886719 114.046875 352.976562 114.171875 352.976562 114.324219 L 352.976562 360.847656 C 352.976562 361.003906 352.886719 361.128906 352.773438 361.128906 "/><path style=" stroke:none;fill-rule:nonzero;fill:#000000;fill-opacity:1;" d="M 298.972656 360.476562 L 352.320312 360.476562 L 352.320312 114.671875 L 298.972656 111.859375 Z M 352.773438 361.785156 L 298.523438 361.785156 C 298.039062 361.785156 297.664062 361.371094 297.664062 360.847656 L 297.664062 111.460938 C 297.664062 111.1875 297.773438 110.929688 297.957031 110.753906 C 298.125 110.59375 298.339844 110.515625 298.5625 110.523438 L 352.816406 113.386719 C 353.273438 113.410156 353.632812 113.824219 353.632812 114.324219 L 353.632812 360.847656 C 353.632812 361.371094 353.257812 361.785156 352.773438 361.785156 "/><path style=" stroke:none;fill-rule:nonzero;fill:#caddff;fill-opacity:1;" d="M 334.964844 231.484375 C 334.601562 231.484375 334.308594 231.191406 334.308594 230.832031 L 334.308594 129.898438 C 334.308594 129.535156 334.601562 129.242188 334.964844 129.242188 C 335.328125 129.242188 335.621094 129.535156 335.621094 129.898438 L 335.621094 230.832031 C 335.621094 231.191406 335.328125 231.484375 334.964844 231.484375 "/><path style=" stroke:none;fill-rule:nonzero;fill:#caddff;fill-opacity:1;" d="M 317.804688 195.519531 C 317.441406 195.519531 317.148438 195.226562 317.148438 194.867188 L 317.148438 165.089844 C 317.148438 164.726562 317.441406 164.433594 317.804688 164.433594 C 318.167969 164.433594 318.457031 164.726562 318.457031 165.089844 L 318.457031 194.867188 C 318.457031 195.226562 318.167969 195.519531 317.804688 195.519531 "/><path style=" stroke:none;fill-rule:nonzero;fill:#caddff;fill-opacity:1;" d="M 317.804688 297.621094 C 317.441406 297.621094 317.148438 297.328125 317.148438 296.96875 L 317.148438 245.585938 C 317.148438 245.222656 317.441406 244.933594 317.804688 244.933594 C 318.167969 244.933594 318.457031 245.222656 318.457031 245.585938 L 318.457031 296.96875 C 318.457031 297.328125 318.167969 297.621094 317.804688 297.621094 "/><path style=" stroke:none;fill-rule:nonzero;fill:#ffffff;fill-opacity:1;" d="M 230.296875 361.160156 L 210.15625 361.160156 L 210.15625 175.601562 L 230.1875 169.28125 L 230.296875 361.160156 "/><path style=" stroke:none;fill-rule:nonzero;fill:#000000;fill-opacity:1;" d="M 210.8125 360.503906 L 229.640625 360.503906 L 229.53125 170.175781 L 210.8125 176.082031 Z M 230.296875 361.8125 L 210.15625 361.8125 C 209.792969 361.8125 209.5 361.519531 209.5 361.160156 L 209.5 175.601562 C 209.5 175.316406 209.6875 175.0625 209.957031 174.976562 L 229.988281 168.65625 C 230.1875 168.59375 230.40625 168.628906 230.574219 168.75 C 230.742188 168.875 230.839844 169.070312 230.839844 169.28125 L 230.949219 361.160156 C 230.949219 361.332031 230.882812 361.496094 230.757812 361.621094 C 230.636719 361.746094 230.46875 361.8125 230.296875 361.8125 "/><path style=" stroke:none;fill-rule:nonzero;fill:#99b9ff;fill-opacity:1;" d="M 284.640625 361.160156 L 230.390625 361.160156 C 230.277344 361.160156 230.1875 361.0625 230.1875 360.941406 L 230.1875 169.503906 C 230.1875 169.382812 230.28125 169.285156 230.394531 169.289062 L 284.648438 171.484375 C 284.757812 171.488281 284.84375 171.585938 284.84375 171.699219 L 284.84375 360.941406 C 284.84375 361.0625 284.75 361.160156 284.640625 361.160156 "/><path style=" stroke:none;fill-rule:nonzero;fill:#000000;fill-opacity:1;" d="M 230.839844 360.503906 L 284.1875 360.503906 L 284.1875 172.121094 L 230.839844 169.960938 Z M 284.640625 361.8125 L 230.390625 361.8125 C 229.917969 361.8125 229.53125 361.421875 229.53125 360.941406 L 229.53125 169.503906 C 229.53125 169.265625 229.628906 169.035156 229.800781 168.867188 C 229.964844 168.710938 230.191406 168.621094 230.421875 168.632812 L 284.675781 170.832031 C 285.136719 170.847656 285.5 171.230469 285.5 171.699219 L 285.5 360.941406 C 285.5 361.421875 285.113281 361.8125 284.640625 361.8125 "/><path style=" stroke:none;fill-rule:nonzero;fill:#caddff;fill-opacity:1;" d="M 257.527344 269.753906 C 257.164062 269.753906 256.871094 269.460938 256.871094 269.097656 L 256.871094 184.105469 C 256.871094 183.742188 257.164062 183.449219 257.527344 183.449219 C 257.886719 183.449219 258.183594 183.742188 258.183594 184.105469 L 258.183594 269.097656 C 258.183594 269.460938 257.886719 269.753906 257.527344 269.753906 "/><path style=" stroke:none;fill-rule:nonzero;fill:#caddff;fill-opacity:1;" d="M 243.203125 212.496094 C 242.84375 212.496094 242.546875 212.199219 242.546875 211.839844 L 242.546875 197.351562 C 242.546875 196.988281 242.84375 196.695312 243.203125 196.695312 C 243.566406 196.695312 243.859375 196.988281 243.859375 197.351562 L 243.859375 211.839844 C 243.859375 212.199219 243.566406 212.496094 243.203125 212.496094 "/><path style=" stroke:none;fill-rule:nonzero;fill:#caddff;fill-opacity:1;" d="M 243.203125 308.617188 C 242.84375 308.617188 242.546875 308.324219 242.546875 307.960938 L 242.546875 235.800781 C 242.546875 235.4375 242.84375 235.144531 243.203125 235.144531 C 243.566406 235.144531 243.859375 235.4375 243.859375 235.800781 L 243.859375 307.960938 C 243.859375 308.324219 243.566406 308.617188 243.203125 308.617188 "/><path style=" stroke:none;fill-rule:nonzero;fill:#caddff;fill-opacity:1;" d="M 271.847656 241.054688 C 271.488281 241.054688 271.191406 240.761719 271.191406 240.402344 L 271.191406 225.910156 C 271.191406 225.550781 271.488281 225.257812 271.847656 225.257812 C 272.210938 225.257812 272.503906 225.550781 272.503906 225.910156 L 272.503906 240.402344 C 272.503906 240.761719 272.210938 241.054688 271.847656 241.054688 "/><path style=" stroke:none;fill-rule:nonzero;fill:#ffffff;fill-opacity:1;" d="M 162.546875 361.160156 L 142.519531 361.160156 L 142.519531 254.511719 L 162.546875 250.121094 L 162.546875 361.160156 "/><path style=" stroke:none;fill-rule:nonzero;fill:#000000;fill-opacity:1;" d="M 143.171875 360.503906 L 161.894531 360.503906 L 161.894531 250.9375 L 143.171875 255.035156 Z M 162.546875 361.8125 L 142.519531 361.8125 C 142.15625 361.8125 141.863281 361.519531 141.863281 361.160156 L 141.863281 254.511719 C 141.863281 254.203125 142.078125 253.9375 142.375 253.871094 L 162.40625 249.480469 C 162.601562 249.441406 162.804688 249.488281 162.957031 249.613281 C 163.113281 249.734375 163.203125 249.925781 163.203125 250.121094 L 163.203125 361.160156 C 163.203125 361.519531 162.910156 361.8125 162.546875 361.8125 "/><path style=" stroke:none;fill-rule:nonzero;fill:#99b9ff;fill-opacity:1;" d="M 217.207031 361.160156 L 162.546875 361.160156 L 162.546875 250.355469 C 162.546875 250.226562 162.652344 250.125 162.78125 250.128906 L 217.207031 251.953125 L 217.207031 361.160156 "/><path style=" stroke:none;fill-rule:nonzero;fill:#000000;fill-opacity:1;" d="M 163.203125 360.503906 L 216.550781 360.503906 L 216.550781 252.582031 L 163.203125 250.796875 Z M 217.859375 361.8125 L 161.894531 361.8125 L 161.894531 250.355469 C 161.894531 250.117188 161.992188 249.886719 162.160156 249.722656 C 162.332031 249.558594 162.558594 249.464844 162.804688 249.476562 L 217.859375 251.320312 L 217.859375 361.8125 "/><path style=" stroke:none;fill-rule:nonzero;fill:#caddff;fill-opacity:1;" d="M 177.078125 330.199219 C 176.714844 330.199219 176.421875 329.902344 176.421875 329.542969 L 176.421875 263.390625 C 176.421875 263.027344 176.714844 262.734375 177.078125 262.734375 C 177.4375 262.734375 177.730469 263.027344 177.730469 263.390625 L 177.730469 329.542969 C 177.730469 329.902344 177.4375 330.199219 177.078125 330.199219 "/><path style=" stroke:none;fill-rule:nonzero;fill:#caddff;fill-opacity:1;" d="M 205.722656 337.933594 C 205.359375 337.933594 205.066406 337.640625 205.066406 337.277344 L 205.066406 271.125 C 205.066406 270.765625 205.359375 270.472656 205.722656 270.472656 C 206.085938 270.472656 206.378906 270.765625 206.378906 271.125 L 206.378906 337.277344 C 206.378906 337.640625 206.085938 337.933594 205.722656 337.933594 "/><path style=" stroke:none;fill-rule:nonzero;fill:#caddff;fill-opacity:1;" d="M 191.398438 312.015625 C 191.039062 312.015625 190.742188 311.722656 190.742188 311.359375 L 190.742188 297.820312 C 190.742188 297.457031 191.039062 297.164062 191.398438 297.164062 C 191.761719 297.164062 192.054688 297.457031 192.054688 297.820312 L 192.054688 311.359375 C 192.054688 311.722656 191.761719 312.015625 191.398438 312.015625 "/><path style=" stroke:none;fill-rule:nonzero;fill:#ffffff;fill-opacity:1;" d="M 95.1875 361.160156 L 74.964844 361.160156 L 74.964844 308.265625 L 94.996094 304.316406 L 95.1875 361.160156 "/><path style=" stroke:none;fill-rule:nonzero;fill:#000000;fill-opacity:1;" d="M 75.621094 360.503906 L 94.53125 360.503906 L 94.34375 305.113281 L 75.621094 308.800781 Z M 95.1875 361.8125 L 74.964844 361.8125 C 74.605469 361.8125 74.3125 361.519531 74.3125 361.160156 L 74.3125 308.265625 C 74.3125 307.953125 74.53125 307.683594 74.839844 307.621094 L 94.871094 303.675781 C 95.0625 303.636719 95.261719 303.6875 95.414062 303.8125 C 95.5625 303.933594 95.652344 304.121094 95.652344 304.316406 L 95.84375 361.15625 C 95.84375 361.328125 95.773438 361.496094 95.652344 361.621094 C 95.527344 361.746094 95.363281 361.8125 95.1875 361.8125 "/><path style=" stroke:none;fill-rule:nonzero;fill:#99b9ff;fill-opacity:1;" d="M 149.460938 361.160156 L 95.1875 361.160156 C 95.082031 361.160156 94.996094 361.074219 94.996094 360.96875 L 94.996094 304.511719 C 94.996094 304.40625 95.082031 304.320312 95.191406 304.320312 L 149.464844 305.207031 C 149.570312 305.207031 149.652344 305.292969 149.652344 305.398438 L 149.652344 360.96875 C 149.652344 361.074219 149.566406 361.160156 149.460938 361.160156 "/><path style=" stroke:none;fill-rule:nonzero;fill:#000000;fill-opacity:1;" d="M 95.652344 360.503906 L 148.996094 360.503906 L 148.996094 305.851562 L 95.652344 304.984375 Z M 149.460938 361.8125 L 95.1875 361.8125 C 94.722656 361.8125 94.339844 361.433594 94.339844 360.96875 L 94.339844 304.511719 C 94.339844 304.285156 94.429688 304.070312 94.59375 303.910156 C 94.757812 303.75 94.972656 303.667969 95.199219 303.667969 L 149.476562 304.550781 C 149.933594 304.558594 150.308594 304.9375 150.308594 305.398438 L 150.308594 360.96875 C 150.308594 361.433594 149.929688 361.8125 149.460938 361.8125 "/><path style=" stroke:none;fill-rule:nonzero;fill:#caddff;fill-opacity:1;" d="M 133.132812 348.378906 C 132.773438 348.378906 132.480469 348.085938 132.480469 347.722656 L 132.480469 314.070312 C 132.480469 313.703125 132.773438 313.414062 133.132812 313.414062 C 133.496094 313.414062 133.789062 313.703125 133.789062 314.070312 L 133.789062 347.722656 C 133.789062 348.085938 133.496094 348.378906 133.132812 348.378906 "/><path style=" stroke:none;fill-rule:nonzero;fill:#caddff;fill-opacity:1;" d="M 115.972656 336.386719 C 115.609375 336.386719 115.316406 336.09375 115.316406 335.730469 L 115.316406 325.800781 C 115.316406 325.441406 115.609375 325.148438 115.972656 325.148438 C 116.335938 325.148438 116.628906 325.441406 116.628906 325.800781 L 116.628906 335.730469 C 116.628906 336.09375 116.335938 336.386719 115.972656 336.386719 "/><path style=" stroke:none;fill-rule:nonzero;fill:#ffffff;fill-opacity:1;" d="M 27.796875 361.160156 L 7.578125 361.160156 L 7.578125 333.457031 L 27.609375 330.082031 L 27.796875 361.160156 "/><path style=" stroke:none;fill-rule:nonzero;fill:#000000;fill-opacity:1;" d="M 8.234375 360.503906 L 27.140625 360.503906 L 26.957031 330.851562 L 8.234375 334.011719 Z M 27.796875 361.8125 L 7.578125 361.8125 C 7.214844 361.8125 6.921875 361.519531 6.921875 361.160156 L 6.921875 333.457031 C 6.921875 333.140625 7.152344 332.863281 7.46875 332.8125 L 27.5 329.433594 C 27.6875 329.402344 27.882812 329.453125 28.03125 329.578125 C 28.175781 329.703125 28.261719 329.882812 28.261719 330.078125 L 28.453125 361.152344 C 28.453125 361.328125 28.386719 361.496094 28.261719 361.621094 C 28.140625 361.742188 27.972656 361.8125 27.796875 361.8125 "/><path style=" stroke:none;fill-rule:nonzero;fill:#99b9ff;fill-opacity:1;" d="M 82.074219 361.160156 L 27.796875 361.160156 C 27.695312 361.160156 27.609375 361.109375 27.609375 361.054688 L 27.609375 330.1875 C 27.609375 330.128906 27.695312 330.082031 27.800781 330.082031 L 82.078125 330.566406 C 82.179688 330.566406 82.265625 330.613281 82.265625 330.671875 L 82.265625 361.054688 C 82.265625 361.109375 82.179688 361.160156 82.074219 361.160156 "/><path style=" stroke:none;fill-rule:nonzero;fill:#000000;fill-opacity:1;" d="M 28.261719 360.503906 L 81.609375 360.503906 L 81.609375 331.214844 L 28.261719 330.738281 Z M 82.074219 361.8125 L 27.796875 361.8125 C 27.324219 361.8125 26.953125 361.480469 26.953125 361.054688 L 26.953125 330.1875 C 26.953125 329.992188 27.03125 329.808594 27.171875 329.671875 C 27.328125 329.515625 27.5625 329.429688 27.808594 329.425781 L 82.082031 329.910156 C 82.5625 329.914062 82.921875 330.242188 82.921875 330.671875 L 82.921875 361.054688 C 82.921875 361.480469 82.546875 361.8125 82.074219 361.8125 "/><path style=" stroke:none;fill-rule:nonzero;fill:#caddff;fill-opacity:1;" d="M 65.746094 354.46875 C 65.382812 354.46875 65.089844 354.175781 65.089844 353.8125 L 65.089844 335.410156 C 65.089844 335.046875 65.382812 334.757812 65.746094 334.757812 C 66.109375 334.757812 66.402344 335.046875 66.402344 335.410156 L 66.402344 353.8125 C 66.402344 354.175781 66.109375 354.46875 65.746094 354.46875 "/><path style=" stroke:none;fill-rule:nonzero;fill:#caddff;fill-opacity:1;" d="M 48.585938 347.910156 C 48.222656 347.910156 47.929688 347.617188 47.929688 347.253906 L 47.929688 341.828125 C 47.929688 341.464844 48.222656 341.171875 48.585938 341.171875 C 48.945312 341.171875 49.238281 341.464844 49.238281 341.828125 L 49.238281 347.253906 C 49.238281 347.617188 48.945312 347.910156 48.585938 347.910156 "/><path style=" stroke:none;fill-rule:nonzero;fill:#ffffff;fill-opacity:1;" d="M 87.375 275.75 L 85.394531 293.304688 L 92.863281 296.414062 L 95.617188 277.277344 L 87.375 275.75 "/><path style=" stroke:none;fill-rule:nonzero;fill:#000000;fill-opacity:1;" d="M 86.101562 292.886719 L 92.335938 295.484375 L 94.878906 277.804688 L 87.945312 276.519531 Z M 92.863281 297.066406 C 92.777344 297.066406 92.691406 297.050781 92.613281 297.015625 L 85.140625 293.910156 C 84.871094 293.796875 84.710938 293.519531 84.742188 293.230469 L 86.722656 275.675781 C 86.742188 275.496094 86.835938 275.332031 86.984375 275.222656 C 87.128906 275.113281 87.3125 275.074219 87.492188 275.105469 L 95.734375 276.628906 C 96.082031 276.695312 96.3125 277.019531 96.265625 277.371094 L 93.511719 296.503906 C 93.484375 296.707031 93.363281 296.882812 93.1875 296.984375 C 93.089844 297.039062 92.976562 297.066406 92.863281 297.066406 "/><path style=" stroke:none;fill-rule:nonzero;fill:#99b9ff;fill-opacity:1;" d="M 83.65625 291.648438 C 83.417969 293.308594 83.039062 296.394531 83.007812 299.164062 C 82.988281 300.902344 84.292969 302.367188 86.019531 302.589844 C 90.898438 303.214844 101.960938 303.898438 111.382812 303.042969 C 112.027344 302.988281 113.171875 302.519531 113.488281 300.90625 C 114.554688 295.503906 105.144531 294.175781 94.828125 290.257812 C 94.421875 290.101562 93.964844 290.191406 93.65625 290.496094 L 92.542969 291.570312 C 91.429688 292.648438 89.777344 292.953125 88.355469 292.347656 L 84.96875 290.902344 C 84.394531 290.65625 83.742188 291.027344 83.65625 291.648438 "/><path style=" stroke:none;fill-rule:nonzero;fill:#000000;fill-opacity:1;" d="M 84.304688 291.738281 C 84.078125 293.332031 83.695312 296.421875 83.664062 299.171875 C 83.648438 300.570312 84.695312 301.761719 86.101562 301.941406 C 91.132812 302.585938 102 303.238281 111.324219 302.394531 C 111.527344 302.375 112.5625 302.210938 112.84375 300.78125 C 113.515625 297.375 109.230469 295.792969 101.601562 293.292969 C 99.351562 292.554688 97.027344 291.792969 94.59375 290.867188 C 94.429688 290.804688 94.238281 290.84375 94.113281 290.964844 L 93 292.039062 C 91.691406 293.304688 89.769531 293.660156 88.097656 292.949219 L 84.714844 291.507812 C 84.597656 291.457031 84.5 291.492188 84.453125 291.519531 C 84.402344 291.546875 84.320312 291.609375 84.304688 291.738281 Z M 101.566406 304.101562 C 95.214844 304.101562 89.292969 303.671875 85.9375 303.238281 C 83.871094 302.976562 82.328125 301.21875 82.351562 299.15625 C 82.386719 296.335938 82.777344 293.183594 83.007812 291.554688 C 83.078125 291.054688 83.367188 290.628906 83.808594 290.378906 C 84.246094 290.132812 84.761719 290.101562 85.226562 290.300781 L 88.609375 291.746094 C 89.796875 292.25 91.160156 291.996094 92.085938 291.101562 L 93.199219 290.023438 C 93.691406 289.550781 94.417969 289.402344 95.0625 289.644531 C 97.464844 290.554688 99.773438 291.316406 102.011719 292.046875 C 109.300781 294.4375 115.058594 296.328125 114.132812 301.035156 C 113.769531 302.851562 112.457031 303.605469 111.445312 303.699219 C 108.234375 303.988281 104.84375 304.101562 101.566406 304.101562 "/><path style=" stroke:none;fill-rule:nonzero;fill:#ffffff;fill-opacity:1;" d="M 83.015625 298.746094 C 83.015625 298.746094 83.007812 299.03125 83.007812 299.164062 C 82.988281 300.902344 84.292969 302.367188 86.019531 302.589844 C 90.898438 303.214844 101.960938 303.898438 111.382812 303.042969 C 112.027344 302.988281 113.171875 302.519531 113.488281 300.90625 C 113.585938 300.414062 113.523438 299.523438 113.523438 299.523438 L 112.855469 299.554688 C 103.332031 300.027344 93.789062 299.800781 84.300781 298.875 L 83.015625 298.746094 "/><path style=" stroke:none;fill-rule:nonzero;fill:#000000;fill-opacity:1;" d="M 83.675781 299.472656 C 83.800781 300.738281 84.796875 301.773438 86.101562 301.941406 C 91.132812 302.585938 102 303.238281 111.324219 302.394531 C 111.527344 302.375 112.5625 302.210938 112.84375 300.78125 C 112.875 300.632812 112.886719 300.421875 112.886719 300.210938 C 103.367188 300.679688 93.726562 300.449219 84.238281 299.527344 Z M 101.566406 304.101562 C 95.214844 304.101562 89.292969 303.671875 85.9375 303.238281 C 83.871094 302.976562 82.328125 301.21875 82.351562 299.15625 L 82.359375 298.734375 C 82.363281 298.554688 82.445312 298.378906 82.582031 298.257812 C 82.71875 298.136719 82.894531 298.082031 83.078125 298.097656 L 84.363281 298.222656 C 93.789062 299.140625 103.363281 299.371094 112.824219 298.902344 L 113.492188 298.871094 C 113.847656 298.84375 114.15625 299.125 114.179688 299.480469 C 114.1875 299.582031 114.242188 300.472656 114.132812 301.035156 C 113.769531 302.851562 112.457031 303.605469 111.445312 303.699219 C 108.234375 303.988281 104.84375 304.101562 101.566406 304.101562 "/><path style=" stroke:none;fill-rule:nonzero;fill:#000000;fill-opacity:1;" d="M 97.195312 296.746094 C 97.027344 296.746094 96.859375 296.683594 96.730469 296.558594 C 96.472656 296.300781 96.472656 295.886719 96.730469 295.628906 L 100.351562 292.011719 C 100.605469 291.757812 101.019531 291.757812 101.277344 292.011719 C 101.53125 292.265625 101.53125 292.683594 101.277344 292.9375 L 97.65625 296.558594 C 97.53125 296.683594 97.363281 296.746094 97.195312 296.746094 "/><path style=" stroke:none;fill-rule:nonzero;fill:#000000;fill-opacity:1;" d="M 100.75 297.121094 C 100.585938 297.121094 100.421875 297.0625 100.296875 296.941406 C 100.035156 296.691406 100.027344 296.273438 100.277344 296.015625 L 103.171875 293.011719 C 103.421875 292.75 103.835938 292.742188 104.097656 292.992188 C 104.355469 293.246094 104.363281 293.660156 104.113281 293.917969 L 101.222656 296.921875 C 101.09375 297.054688 100.921875 297.121094 100.75 297.121094 "/><path style=" stroke:none;fill-rule:nonzero;fill:#000000;fill-opacity:1;" d="M 114.507812 160.066406 C 114.507812 160.066406 109.957031 162.703125 108.183594 178.171875 C 106.410156 193.636719 107 211.867188 94.640625 229.949219 C 84.769531 244.386719 85.636719 268.757812 84.203125 284.730469 C 84.132812 285.5 84.726562 286.171875 85.5 286.195312 L 94.964844 286.519531 C 95.566406 286.542969 96.109375 286.164062 96.292969 285.589844 C 97.984375 280.355469 106.398438 255.101562 115.847656 240.460938 C 125.832031 224.988281 137.972656 184.824219 137.972656 184.824219 C 137.972656 184.824219 135.71875 174.667969 135.40625 164.941406 C 135.09375 155.210938 114.507812 160.066406 114.507812 160.066406 "/><path style=" stroke:none;fill-rule:nonzero;fill:#ffffff;fill-opacity:1;" d="M 170.238281 223.679688 L 166.246094 240.886719 L 173.308594 244.835938 L 178.246094 226.140625 L 170.238281 223.679688 "/><path style=" stroke:none;fill-rule:nonzero;fill:#000000;fill-opacity:1;" d="M 166.996094 240.558594 L 172.890625 243.851562 L 177.453125 226.582031 L 170.714844 224.511719 Z M 173.308594 245.492188 C 173.199219 245.492188 173.085938 245.464844 172.988281 245.40625 L 165.925781 241.457031 C 165.671875 241.316406 165.542969 241.023438 165.609375 240.738281 L 169.597656 223.53125 C 169.640625 223.351562 169.753906 223.203125 169.910156 223.109375 C 170.066406 223.023438 170.253906 223 170.429688 223.054688 L 178.441406 225.515625 C 178.777344 225.621094 178.972656 225.96875 178.882812 226.308594 L 173.941406 245.003906 C 173.890625 245.199219 173.75 245.359375 173.5625 245.4375 C 173.484375 245.472656 173.394531 245.492188 173.308594 245.492188 "/><path style=" stroke:none;fill-rule:nonzero;fill:#99b9ff;fill-opacity:1;" d="M 165.398438 239.871094 C 165.164062 241.535156 163.667969 244.691406 163.632812 247.457031 C 163.613281 249.195312 164.921875 250.660156 166.644531 250.882812 C 171.523438 251.507812 183.703125 252.125 193.128906 251.269531 C 193.769531 251.210938 194.910156 250.742188 195.230469 249.132812 C 196.296875 243.726562 186.886719 242.402344 176.570312 238.480469 C 176.167969 238.328125 175.710938 238.417969 175.398438 238.71875 L 174.285156 239.796875 C 173.171875 240.871094 171.523438 241.179688 170.097656 240.570312 L 166.714844 239.128906 C 166.136719 238.882812 165.484375 239.253906 165.398438 239.871094 "/><path style=" stroke:none;fill-rule:nonzero;fill:#000000;fill-opacity:1;" d="M 166.046875 239.960938 C 165.953125 240.632812 165.6875 241.46875 165.382812 242.433594 C 164.902344 243.941406 164.308594 245.820312 164.289062 247.464844 C 164.273438 248.863281 165.320312 250.054688 166.730469 250.230469 C 171.148438 250.800781 183.410156 251.492188 193.066406 250.617188 C 193.273438 250.601562 194.304688 250.433594 194.585938 249.003906 C 195.261719 245.601562 190.972656 244.019531 183.34375 241.519531 C 181.09375 240.777344 178.769531 240.015625 176.335938 239.09375 C 176.171875 239.03125 175.980469 239.066406 175.855469 239.191406 L 174.742188 240.265625 C 173.433594 241.53125 171.511719 241.886719 169.839844 241.171875 L 166.453125 239.730469 C 166.339844 239.679688 166.242188 239.71875 166.195312 239.746094 C 166.144531 239.773438 166.066406 239.835938 166.046875 239.960938 Z M 182.566406 252.339844 C 176.183594 252.339844 169.980469 251.96875 166.5625 251.53125 C 164.496094 251.265625 162.953125 249.511719 162.980469 247.449219 C 163 245.609375 163.625 243.628906 164.132812 242.039062 C 164.417969 241.128906 164.667969 240.34375 164.75 239.78125 C 164.820312 239.28125 165.113281 238.851562 165.550781 238.605469 C 165.988281 238.359375 166.507812 238.332031 166.96875 238.527344 L 170.351562 239.96875 C 171.539062 240.472656 172.90625 240.222656 173.832031 239.324219 L 174.941406 238.25 C 175.433594 237.773438 176.164062 237.625 176.804688 237.871094 C 179.207031 238.785156 181.515625 239.539062 183.753906 240.273438 C 191.042969 242.664062 196.800781 244.550781 195.875 249.257812 C 195.515625 251.078125 194.199219 251.832031 193.1875 251.921875 C 189.910156 252.21875 186.207031 252.339844 182.566406 252.339844 "/><path style=" stroke:none;fill-rule:nonzero;fill:#ffffff;fill-opacity:1;" d="M 163.898438 246.925781 C 163.898438 246.925781 163.890625 247.207031 163.890625 247.34375 C 163.875 249.082031 165.179688 250.546875 166.902344 250.765625 C 171.78125 251.390625 183.703125 252.125 193.128906 251.269531 C 193.769531 251.210938 194.910156 250.742188 195.230469 249.132812 C 195.328125 248.640625 195.269531 247.75 195.269531 247.75 L 194.601562 247.78125 C 185.078125 248.25 175.53125 248.023438 166.042969 247.097656 L 163.898438 246.925781 "/><path style=" stroke:none;fill-rule:nonzero;fill:#000000;fill-opacity:1;" d="M 164.558594 247.636719 C 164.679688 248.90625 165.675781 249.949219 166.988281 250.117188 C 171.257812 250.664062 183.25 251.507812 193.066406 250.617188 C 193.273438 250.601562 194.304688 250.433594 194.585938 249.003906 C 194.617188 248.859375 194.628906 248.644531 194.628906 248.4375 C 185.109375 248.90625 175.46875 248.675781 165.980469 247.75 Z M 183.46875 252.316406 C 176.398438 252.316406 169.777344 251.796875 166.820312 251.414062 C 164.753906 251.152344 163.214844 249.394531 163.238281 247.332031 L 163.246094 246.914062 C 163.25 246.734375 163.328125 246.5625 163.460938 246.441406 C 163.59375 246.320312 163.769531 246.257812 163.953125 246.273438 L 166.097656 246.445312 C 175.53125 247.367188 185.105469 247.59375 194.566406 247.128906 L 195.234375 247.09375 C 195.59375 247.074219 195.898438 247.351562 195.921875 247.707031 C 195.929688 247.804688 195.984375 248.695312 195.875 249.257812 C 195.515625 251.078125 194.199219 251.832031 193.1875 251.921875 C 190.0625 252.207031 186.71875 252.316406 183.46875 252.316406 "/><path style=" stroke:none;fill-rule:nonzero;fill:#000000;fill-opacity:1;" d="M 178.9375 244.972656 C 178.769531 244.972656 178.601562 244.910156 178.472656 244.78125 C 178.21875 244.527344 178.21875 244.109375 178.472656 243.855469 L 182.09375 240.238281 C 182.347656 239.980469 182.761719 239.980469 183.019531 240.238281 C 183.277344 240.492188 183.277344 240.90625 183.019531 241.164062 L 179.398438 244.78125 C 179.269531 244.910156 179.105469 244.972656 178.9375 244.972656 "/><path style=" stroke:none;fill-rule:nonzero;fill:#000000;fill-opacity:1;" d="M 182.492188 245.347656 C 182.328125 245.347656 182.164062 245.289062 182.039062 245.164062 C 181.777344 244.914062 181.769531 244.5 182.019531 244.238281 L 184.910156 241.234375 C 185.164062 240.976562 185.578125 240.96875 185.839844 241.21875 C 186.101562 241.46875 186.109375 241.882812 185.855469 242.144531 L 182.964844 245.148438 C 182.835938 245.28125 182.664062 245.347656 182.492188 245.347656 "/><path style=" stroke:none;fill-rule:nonzero;fill:#000000;fill-opacity:1;" d="M 132.738281 187.550781 C 132.738281 187.550781 154 185.878906 177.730469 173.144531 C 178.429688 172.769531 178.882812 173.929688 178.457031 174.597656 C 177.261719 176.488281 176.628906 179.320312 174.847656 184.152344 C 172.65625 190.101562 168.019531 220.886719 166.496094 230.464844 C 166.359375 231.332031 167.007812 232.121094 167.886719 232.148438 L 177.011719 232.445312 C 177.585938 232.464844 178.121094 232.140625 178.371094 231.621094 C 181.664062 224.769531 203.160156 170.824219 202.335938 160.777344 C 201.449219 149.914062 189.042969 150.640625 183.867188 150.308594 C 178.511719 149.964844 129.96875 159.03125 129.96875 159.03125 L 132.738281 187.550781 "/><path style=" stroke:none;fill-rule:nonzero;fill:#ffffff;fill-opacity:1;" d="M 68.0625 171.683594 C 68.796875 170.8125 69.75 169.785156 70.566406 168.976562 C 71.625 167.929688 75.152344 161.070312 75.152344 161.070312 L 81.324219 162.816406 C 81.324219 162.816406 78.441406 167.859375 79.132812 170.367188 C 79.777344 172.707031 80.285156 177.648438 76.859375 181.242188 C 76.464844 181.65625 75.605469 181.765625 75.308594 181.695312 C 74.414062 181.484375 74.394531 180.246094 74.832031 179.4375 L 76.070312 177.160156 C 76.179688 176.960938 76.015625 176.722656 75.789062 176.753906 C 74.863281 176.886719 72.828125 177.476562 70.695312 180.105469 C 69.054688 182.125 65.808594 186.636719 64.714844 185.890625 C 62.761719 184.554688 64.039062 176.476562 68.0625 171.683594 "/><path style=" stroke:none;fill-rule:nonzero;fill:#000000;fill-opacity:1;" d="M 68.5625 172.105469 C 65.652344 175.574219 64.128906 181.054688 64.53125 184 C 64.621094 184.640625 64.800781 185.109375 65.039062 185.3125 C 65.867188 185.183594 68.300781 182.082031 69.347656 180.746094 C 69.65625 180.359375 69.941406 179.996094 70.1875 179.691406 C 72.425781 176.929688 74.601562 176.257812 75.695312 176.105469 C 76.046875 176.058594 76.390625 176.207031 76.59375 176.496094 C 76.792969 176.789062 76.816406 177.160156 76.644531 177.472656 L 75.410156 179.75 C 75.207031 180.121094 75.148438 180.621094 75.273438 180.898438 C 75.320312 181.003906 75.382812 181.039062 75.457031 181.058594 C 75.636719 181.085938 76.203125 180.984375 76.386719 180.792969 C 80.035156 176.964844 78.789062 171.582031 78.5 170.542969 C 77.898438 168.363281 79.542969 164.792969 80.359375 163.222656 L 75.488281 161.84375 C 74.625 163.507812 71.996094 168.484375 71.027344 169.441406 C 70.214844 170.246094 69.269531 171.265625 68.5625 172.105469 Z M 65.085938 185.347656 L 65.089844 185.347656 Z M 64.992188 186.632812 C 64.761719 186.632812 64.546875 186.566406 64.34375 186.429688 C 63.757812 186.027344 63.382812 185.269531 63.234375 184.175781 C 62.792969 180.96875 64.324219 175.121094 67.558594 171.265625 C 68.300781 170.382812 69.253906 169.351562 70.105469 168.507812 C 70.824219 167.800781 73.226562 163.386719 74.570312 160.769531 C 74.714844 160.492188 75.03125 160.351562 75.332031 160.4375 L 81.503906 162.183594 C 81.695312 162.242188 81.855469 162.382812 81.929688 162.566406 C 82.007812 162.753906 81.992188 162.964844 81.894531 163.140625 C 81.128906 164.476562 79.253906 168.355469 79.765625 170.195312 C 80.691406 173.550781 80.539062 178.332031 77.335938 181.695312 C 76.738281 182.320312 75.621094 182.441406 75.15625 182.332031 C 74.671875 182.21875 74.285156 181.898438 74.078125 181.433594 C 73.78125 180.777344 73.851562 179.871094 74.257812 179.125 L 75.089844 177.59375 C 74.148438 177.902344 72.707031 178.664062 71.203125 180.515625 C 70.960938 180.816406 70.683594 181.171875 70.378906 181.554688 C 68.023438 184.558594 66.28125 186.632812 64.992188 186.632812 "/><path style=" stroke:none;fill-rule:nonzero;fill:#5479f7;fill-opacity:1;" d="M 215.976562 94.171875 L 211.992188 87.453125 C 211.335938 86.347656 209.269531 86.015625 208.242188 86.78125 C 185.707031 103.566406 161.734375 96.722656 158.03125 95.839844 C 148.84375 93.652344 144.214844 93.320312 136.960938 92.878906 C 126.347656 92.234375 111.078125 98.367188 100.800781 108.636719 C 92.628906 116.804688 78.6875 143.296875 72.363281 161.703125 C 72.097656 162.476562 72.441406 163.324219 73.167969 163.703125 L 79.511719 166.992188 C 80.316406 167.410156 81.304688 167.105469 81.726562 166.304688 C 84.957031 160.226562 98.941406 135.019531 113.578125 126.699219 C 114.652344 126.085938 116.273438 126.734375 116.210938 127.96875 C 116.015625 131.84375 113.609375 146.203125 112.875 159.511719 C 112.777344 161.265625 113.992188 162.824219 115.722656 163.144531 L 122.125 164.332031 C 133.292969 166.929688 143.765625 164.035156 148.378906 162.390625 C 149.789062 161.886719 150.472656 160.523438 150.6875 159.039062 C 151.042969 156.578125 156 136.851562 165.039062 123.804688 C 166.179688 122.160156 167.902344 121.023438 169.898438 120.90625 C 177.957031 120.4375 200.898438 117.21875 215.878906 96.238281 C 216.316406 95.628906 216.363281 94.820312 215.976562 94.171875 "/><path style=" stroke:none;fill-rule:nonzero;fill:#ffffff;fill-opacity:1;" d="M 210.488281 89.476562 C 210.402344 88.976562 210.578125 88.46875 210.964844 88.140625 C 211.476562 87.707031 212.335938 86.96875 213.589844 85.875 C 215.792969 83.945312 218.550781 80.097656 220.957031 78.945312 C 223.359375 77.792969 232.074219 74.386719 233.46875 75.109375 C 234.863281 75.832031 234.171875 77.46875 232.191406 78.417969 C 230.214844 79.367188 227.636719 80.34375 227.636719 80.34375 C 227.636719 80.34375 229.078125 80.261719 230.140625 81.925781 C 231.203125 83.585938 229.730469 84.261719 230.351562 85.085938 C 231.148438 86.136719 230.914062 87.363281 230.28125 87.898438 C 228.84375 89.125 227.097656 86.703125 225.800781 89.210938 C 224.894531 90.949219 222.757812 92.082031 218.429688 92.910156 C 217.265625 93.132812 216.15625 93.578125 215.15625 94.203125 C 214.742188 94.464844 214.214844 94.484375 213.789062 94.242188 C 212.753906 93.660156 210.960938 92.269531 210.488281 89.476562 "/><path style=" stroke:none;fill-rule:nonzero;fill:#000000;fill-opacity:1;" d="M 232.835938 75.644531 C 230.980469 75.644531 224.082031 78.171875 221.242188 79.535156 C 219.820312 80.214844 218.207031 81.976562 216.648438 83.679688 C 215.722656 84.6875 214.847656 85.640625 214.023438 86.367188 C 212.765625 87.460938 211.902344 88.203125 211.390625 88.636719 C 211.183594 88.816406 211.085938 89.085938 211.136719 89.367188 C 211.5625 91.894531 213.183594 93.148438 214.109375 93.671875 C 214.324219 93.792969 214.59375 93.785156 214.808594 93.648438 C 215.902344 92.964844 217.078125 92.5 218.304688 92.265625 C 222.328125 91.496094 224.394531 90.492188 225.21875 88.90625 C 226.195312 87.027344 227.566406 87.3125 228.472656 87.5 C 229.140625 87.640625 229.507812 87.699219 229.859375 87.398438 C 230.222656 87.089844 230.417969 86.25 229.832031 85.476562 C 229.351562 84.84375 229.578125 84.21875 229.726562 83.800781 C 229.894531 83.332031 230.027344 82.960938 229.589844 82.277344 C 228.757812 80.976562 227.683594 80.996094 227.675781 80.996094 C 227.351562 81.015625 227.066406 80.796875 227 80.480469 C 226.929688 80.164062 227.101562 79.84375 227.40625 79.734375 C 227.433594 79.722656 229.980469 78.753906 231.910156 77.828125 C 233.023438 77.292969 233.539062 76.59375 233.546875 76.171875 C 233.546875 76.09375 233.550781 75.890625 233.167969 75.691406 C 233.089844 75.660156 232.976562 75.644531 232.835938 75.644531 Z M 214.4375 95.066406 C 214.101562 95.066406 213.769531 94.984375 213.46875 94.8125 C 212.335938 94.175781 210.359375 92.648438 209.84375 89.582031 C 209.722656 88.859375 209.988281 88.113281 210.542969 87.640625 C 211.054688 87.207031 211.914062 86.46875 213.15625 85.378906 C 213.929688 84.703125 214.78125 83.777344 215.683594 82.792969 C 217.324219 81 219.027344 79.144531 220.671875 78.355469 C 220.78125 78.304688 231.722656 73.464844 233.769531 74.527344 C 234.472656 74.890625 234.867188 75.5 234.859375 76.191406 C 234.84375 77.230469 233.929688 78.308594 232.476562 79.007812 C 231.5 79.476562 230.390625 79.949219 229.503906 80.308594 C 229.90625 80.589844 230.324219 80.992188 230.695312 81.574219 C 231.476562 82.796875 231.167969 83.667969 230.960938 84.242188 C 230.828125 84.617188 230.839844 84.636719 230.878906 84.6875 C 231.890625 86.027344 231.582031 87.65625 230.710938 88.398438 C 229.851562 89.125 228.898438 88.929688 228.203125 88.785156 C 227.335938 88.601562 226.902344 88.511719 226.382812 89.511719 C 225.351562 91.492188 223.011719 92.699219 218.550781 93.550781 C 217.484375 93.753906 216.460938 94.160156 215.503906 94.757812 C 215.175781 94.960938 214.804688 95.066406 214.4375 95.066406 "/><path style=" stroke:none;fill-rule:nonzero;fill:#ffffff;fill-opacity:1;" d="M 152.234375 74.671875 L 140.3125 94.417969 C 140.148438 94.640625 138.398438 94.578125 136.425781 94.78125 C 135.503906 94.875 134.542969 95.011719 133.742188 95.144531 C 133.085938 95.25 132.902344 96.105469 133.457031 96.46875 L 135.589844 97.882812 C 140.0625 100.847656 145.375 102.375 150.726562 102.015625 C 152.214844 101.910156 153.640625 101.671875 154.910156 101.277344 L 159.476562 99.84375 C 160.160156 99.628906 160.15625 98.65625 159.46875 98.449219 L 153.65625 96.6875 L 158.5625 86.273438 L 152.234375 74.671875 "/><path style=" stroke:none;fill-rule:nonzero;fill:#000000;fill-opacity:1;" d="M 152.207031 75.984375 L 140.875 94.753906 C 140.863281 94.769531 140.855469 94.785156 140.84375 94.796875 C 140.5625 95.1875 140.085938 95.210938 138.664062 95.28125 C 138.046875 95.3125 137.277344 95.347656 136.492188 95.429688 C 135.722656 95.507812 134.832031 95.628906 133.847656 95.789062 C 133.832031 95.789062 133.796875 95.796875 133.785156 95.847656 C 133.777344 95.898438 133.804688 95.914062 133.820312 95.921875 L 135.953125 97.335938 C 140.390625 100.273438 145.625 101.699219 150.6875 101.359375 C 152.179688 101.257812 153.535156 101.019531 154.714844 100.652344 L 159.28125 99.214844 C 159.304688 99.210938 159.335938 99.199219 159.335938 99.144531 C 159.335938 99.089844 159.300781 99.082031 159.28125 99.074219 L 153.464844 97.3125 C 153.285156 97.257812 153.132812 97.128906 153.058594 96.953125 C 152.980469 96.777344 152.984375 96.578125 153.066406 96.40625 L 157.832031 86.296875 Z M 149.199219 102.71875 C 144.351562 102.71875 139.445312 101.222656 135.230469 98.425781 L 133.09375 97.015625 C 132.617188 96.699219 132.382812 96.132812 132.503906 95.570312 C 132.625 95.011719 133.070312 94.585938 133.640625 94.496094 C 134.648438 94.332031 135.566406 94.207031 136.363281 94.125 C 137.179688 94.042969 137.964844 94.003906 138.597656 93.972656 C 139.078125 93.949219 139.609375 93.921875 139.871094 93.886719 L 151.671875 74.328125 C 151.796875 74.128906 152.015625 74.007812 152.25 74.015625 C 152.484375 74.019531 152.699219 74.148438 152.8125 74.355469 L 159.140625 85.960938 C 159.238281 86.144531 159.25 86.363281 159.160156 86.554688 L 154.574219 96.28125 L 159.660156 97.820312 C 160.246094 97.996094 160.640625 98.527344 160.644531 99.140625 C 160.648438 99.75 160.257812 100.28125 159.671875 100.464844 L 155.109375 101.902344 C 153.828125 102.300781 152.371094 102.558594 150.773438 102.667969 C 150.253906 102.703125 149.726562 102.71875 149.199219 102.71875 "/><path style=" stroke:none;fill-rule:nonzero;fill:#ffffff;fill-opacity:1;" d="M 157.558594 86.679688 C 158.183594 86.761719 158.828125 86.789062 159.488281 86.753906 L 160.664062 86.691406 C 160.664062 86.691406 167.414062 85.796875 168.5 84.125 C 169.582031 82.453125 167.292969 76.378906 167.292969 76.378906 C 168.335938 75.566406 168.570312 74.542969 168.347656 74.199219 C 168.125 73.855469 166.617188 73.328125 166.007812 72.878906 C 165.511719 72.511719 164.394531 69.605469 163.917969 68.355469 C 163.917969 68.355469 163.03125 63.429688 155.121094 64.070312 C 136.996094 65.535156 150.027344 82.300781 150.027344 82.300781 C 150.308594 82.628906 150.597656 82.941406 150.894531 83.238281 L 157.558594 86.679688 "/><path style=" stroke:none;fill-rule:nonzero;fill:#000000;fill-opacity:1;" d="M 158.917969 87.425781 C 157.898438 87.425781 156.890625 87.289062 155.921875 87.019531 C 155.574219 86.921875 155.371094 86.5625 155.46875 86.210938 C 155.566406 85.863281 155.925781 85.660156 156.273438 85.757812 C 157.296875 86.042969 158.367188 86.160156 159.453125 86.101562 L 160.605469 86.042969 C 163.285156 85.683594 167.316406 84.746094 167.945312 83.769531 C 168.570312 82.808594 167.578125 79.003906 166.679688 76.613281 C 166.578125 76.34375 166.664062 76.039062 166.890625 75.863281 C 167.5625 75.339844 167.757812 74.777344 167.769531 74.554688 C 167.589844 74.433594 167.175781 74.238281 166.890625 74.101562 C 166.421875 73.875 165.941406 73.648438 165.617188 73.410156 C 165.132812 73.054688 164.53125 71.792969 163.304688 68.59375 C 163.289062 68.554688 163.277344 68.515625 163.269531 68.476562 C 163.238281 68.304688 162.351562 64.140625 155.175781 64.722656 C 150.769531 65.082031 147.960938 66.335938 146.839844 68.449219 C 144.9375 72.035156 148.011719 77.472656 149.847656 80.71875 L 150.011719 81.011719 C 150.1875 81.328125 150.078125 81.726562 149.761719 81.902344 C 149.449219 82.082031 149.046875 81.96875 148.871094 81.65625 L 148.707031 81.363281 C 146.738281 77.882812 143.441406 72.054688 145.683594 67.832031 C 147.027344 65.300781 150.1875 63.816406 155.070312 63.417969 C 162.914062 62.785156 164.375 67.492188 164.542969 68.167969 C 165.746094 71.300781 166.222656 72.179688 166.414062 72.371094 C 166.617188 72.519531 167.0625 72.730469 167.457031 72.917969 C 168.234375 73.289062 168.683594 73.515625 168.894531 73.84375 C 169.289062 74.453125 169.058594 75.613281 168.0625 76.578125 C 168.652344 78.238281 170.128906 82.808594 169.046875 84.480469 C 167.859375 86.316406 161.929688 87.1875 160.75 87.34375 C 160.734375 87.34375 160.714844 87.347656 160.699219 87.347656 L 159.519531 87.40625 C 159.320312 87.417969 159.117188 87.425781 158.917969 87.425781 "/><path style=" stroke:none;fill-rule:nonzero;fill:#000000;fill-opacity:1;" d="M 151.421875 61.925781 C 153.398438 61.535156 155.648438 61.84375 156.613281 61.515625 C 158.164062 60.988281 158.128906 59.199219 160.320312 59.023438 C 162.246094 58.871094 164.035156 59.226562 165.007812 60.703125 C 165.167969 60.949219 165.308594 61.222656 165.421875 61.535156 C 166.941406 65.699219 164.84375 67.707031 163.917969 68.359375 C 163.917969 68.359375 158.046875 71.175781 157.035156 71.988281 C 156.085938 72.746094 154.96875 74.546875 155.578125 77.15625 C 155.65625 77.496094 155.496094 77.839844 155.191406 78.011719 C 154.839844 78.207031 154.390625 78.109375 154.160156 77.777344 C 153.433594 76.726562 151.832031 74.691406 150.652344 75.160156 C 149.269531 75.710938 148.800781 79.175781 151.339844 80.035156 C 152.121094 80.296875 152.375 81.320312 151.8125 81.921875 C 151.347656 82.421875 150.632812 82.773438 149.554688 82.5 C 149.554688 82.5 143.242188 78 142.496094 72.070312 C 141.746094 66.140625 148.792969 62.445312 151.421875 61.925781 "/><path style=" stroke:none;fill-rule:nonzero;fill:#000000;fill-opacity:1;" d="M 208.652344 19.988281 L 208.65625 19.988281 Z M 210.996094 19.421875 C 210.304688 19.421875 209.617188 19.75 209.191406 20.363281 C 208.855469 20.847656 208.726562 21.429688 208.832031 22.007812 C 208.933594 22.585938 209.257812 23.089844 209.738281 23.421875 C 210.734375 24.117188 212.109375 23.871094 212.800781 22.875 C 213.136719 22.394531 213.265625 21.8125 213.160156 21.230469 C 213.058594 20.65625 212.734375 20.148438 212.253906 19.816406 C 211.871094 19.546875 211.433594 19.421875 210.996094 19.421875 Z M 210.988281 25.128906 C 210.277344 25.128906 209.585938 24.914062 208.988281 24.5 C 208.21875 23.964844 207.707031 23.160156 207.539062 22.238281 C 207.375 21.316406 207.582031 20.382812 208.113281 19.613281 C 209.21875 18.027344 211.414062 17.632812 213 18.742188 C 213.769531 19.277344 214.285156 20.078125 214.449219 21 C 214.621094 21.925781 214.414062 22.855469 213.875 23.625 C 213.34375 24.394531 212.539062 24.910156 211.617188 25.074219 C 211.40625 25.113281 211.199219 25.128906 210.988281 25.128906 "/><path style=" stroke:none;fill-rule:nonzero;fill:#000000;fill-opacity:1;" d="M 232.183594 28.800781 C 231.996094 28.800781 231.816406 28.722656 231.6875 28.570312 C 231.449219 28.296875 231.484375 27.878906 231.757812 27.648438 L 233.875 25.84375 C 234.148438 25.609375 234.5625 25.640625 234.796875 25.917969 C 235.035156 26.191406 235 26.605469 234.726562 26.839844 L 232.609375 28.644531 C 232.484375 28.746094 232.335938 28.800781 232.183594 28.800781 "/><path style=" stroke:none;fill-rule:nonzero;fill:#000000;fill-opacity:1;" d="M 225.5 34.496094 C 225.3125 34.496094 225.128906 34.417969 225 34.265625 C 224.765625 33.988281 224.796875 33.578125 225.074219 33.339844 L 227.191406 31.539062 C 227.464844 31.304688 227.878906 31.335938 228.113281 31.613281 C 228.347656 31.886719 228.316406 32.300781 228.039062 32.535156 L 225.921875 34.339844 C 225.796875 34.445312 225.648438 34.496094 225.5 34.496094 "/><path style=" stroke:none;fill-rule:nonzero;fill:#000000;fill-opacity:1;" d="M 227.953125 28.460938 C 227.765625 28.460938 227.582031 28.382812 227.453125 28.230469 L 225.648438 26.117188 C 225.414062 25.84375 225.445312 25.425781 225.71875 25.191406 C 225.996094 24.957031 226.410156 24.992188 226.644531 25.265625 L 228.449219 27.382812 C 228.683594 27.65625 228.652344 28.070312 228.378906 28.304688 C 228.253906 28.410156 228.101562 28.460938 227.953125 28.460938 "/><path style=" stroke:none;fill-rule:nonzero;fill:#000000;fill-opacity:1;" d="M 233.652344 35.144531 C 233.46875 35.144531 233.285156 35.066406 233.15625 34.914062 L 231.351562 32.800781 C 231.113281 32.523438 231.148438 32.113281 231.425781 31.875 C 231.699219 31.640625 232.109375 31.671875 232.347656 31.949219 L 234.152344 34.066406 C 234.386719 34.339844 234.351562 34.753906 234.078125 34.988281 C 233.953125 35.09375 233.804688 35.144531 233.652344 35.144531 "/><path style=" stroke:none;fill-rule:nonzero;fill:#000000;fill-opacity:1;" d="M 57.382812 279.621094 C 57.03125 279.621094 56.742188 279.339844 56.726562 278.988281 L 56.621094 276.210938 C 56.609375 275.851562 56.890625 275.546875 57.253906 275.53125 C 57.625 275.519531 57.917969 275.800781 57.933594 276.160156 L 58.039062 278.941406 C 58.050781 279.300781 57.769531 279.605469 57.40625 279.621094 C 57.398438 279.621094 57.390625 279.621094 57.382812 279.621094 "/><path style=" stroke:none;fill-rule:nonzero;fill:#000000;fill-opacity:1;" d="M 57.714844 288.394531 C 57.363281 288.394531 57.074219 288.117188 57.058594 287.765625 L 56.953125 284.988281 C 56.941406 284.628906 57.222656 284.324219 57.585938 284.308594 C 57.957031 284.300781 58.25 284.578125 58.261719 284.9375 L 58.367188 287.714844 C 58.382812 288.078125 58.101562 288.382812 57.738281 288.394531 C 57.730469 288.394531 57.722656 288.394531 57.714844 288.394531 "/><path style=" stroke:none;fill-rule:nonzero;fill:#000000;fill-opacity:1;" d="M 51.714844 282.835938 C 51.363281 282.835938 51.074219 282.558594 51.058594 282.207031 C 51.046875 281.84375 51.328125 281.539062 51.691406 281.527344 L 54.46875 281.421875 C 54.835938 281.410156 55.136719 281.691406 55.148438 282.054688 C 55.164062 282.414062 54.878906 282.71875 54.519531 282.730469 L 51.738281 282.835938 C 51.730469 282.835938 51.722656 282.835938 51.714844 282.835938 "/><path style=" stroke:none;fill-rule:nonzero;fill:#000000;fill-opacity:1;" d="M 60.496094 282.503906 C 60.144531 282.503906 59.855469 282.226562 59.84375 281.875 C 59.828125 281.515625 60.109375 281.210938 60.472656 281.195312 L 63.25 281.09375 C 63.625 281.082031 63.917969 281.359375 63.929688 281.722656 C 63.945312 282.082031 63.660156 282.386719 63.300781 282.402344 L 60.519531 282.503906 C 60.511719 282.503906 60.503906 282.503906 60.496094 282.503906 "/><path style=" stroke:none;fill-rule:nonzero;fill:#000000;fill-opacity:1;" d="M 42.925781 241.363281 C 42.675781 241.363281 42.4375 241.222656 42.328125 240.980469 C 30.738281 215.761719 26.863281 187.871094 31.125 160.324219 C 32.199219 153.390625 33.789062 146.5 35.851562 139.847656 C 35.957031 139.503906 36.324219 139.308594 36.671875 139.417969 C 37.015625 139.523438 37.210938 139.890625 37.101562 140.234375 C 35.058594 146.824219 33.480469 153.652344 32.417969 160.523438 C 28.199219 187.816406 32.035156 215.449219 43.519531 240.433594 C 43.671875 240.761719 43.527344 241.152344 43.199219 241.304688 C 43.109375 241.34375 43.015625 241.363281 42.925781 241.363281 "/><path style=" stroke:none;fill-rule:nonzero;fill:#000000;fill-opacity:1;" d="M 44.574219 244.828125 C 44.332031 244.828125 44.101562 244.695312 43.988281 244.464844 C 43.421875 243.316406 42.863281 242.144531 42.328125 240.980469 C 42.175781 240.652344 42.320312 240.265625 42.648438 240.113281 C 42.980469 239.960938 43.367188 240.105469 43.519531 240.433594 C 44.050781 241.585938 44.601562 242.75 45.164062 243.886719 C 45.324219 244.210938 45.1875 244.601562 44.863281 244.761719 C 44.773438 244.808594 44.671875 244.828125 44.574219 244.828125 "/><path style=" stroke:none;fill-rule:nonzero;fill:#000000;fill-opacity:1;" d="M 36.179688 258.3125 C 35.941406 258.3125 35.710938 258.183594 35.59375 257.957031 C 27.492188 242.140625 22.125 225.160156 19.636719 207.484375 C 17.0625 189.191406 17.652344 170.621094 21.390625 152.285156 C 21.460938 151.933594 21.808594 151.703125 22.164062 151.777344 C 22.515625 151.847656 22.746094 152.191406 22.675781 152.550781 C 15.402344 188.210938 20.40625 225.433594 36.761719 257.359375 C 36.925781 257.679688 36.800781 258.078125 36.476562 258.242188 C 36.382812 258.289062 36.28125 258.3125 36.179688 258.3125 "/><path style=" stroke:none;fill-rule:nonzero;fill:#000000;fill-opacity:1;" d="M 22.625 143.34375 L 26.292969 144.824219 L 26.398438 140.394531 Z M 26.925781 146.441406 C 26.839844 146.441406 26.757812 146.425781 26.679688 146.394531 L 21.082031 144.132812 C 20.867188 144.046875 20.710938 143.847656 20.679688 143.617188 C 20.648438 143.386719 20.738281 143.152344 20.925781 143.011719 L 26.683594 138.507812 C 26.882812 138.351562 27.15625 138.324219 27.382812 138.4375 C 27.609375 138.554688 27.75 138.789062 27.742188 139.039062 L 27.578125 145.800781 C 27.574219 146.019531 27.464844 146.214844 27.285156 146.332031 C 27.175781 146.40625 27.050781 146.441406 26.925781 146.441406 "/><path style=" stroke:none;fill-rule:nonzero;fill:#000000;fill-opacity:1;" d="M 218.925781 162.78125 C 218.726562 162.78125 218.527344 162.691406 218.398438 162.519531 C 218.183594 162.230469 218.246094 161.816406 218.535156 161.601562 L 237.632812 147.464844 C 237.921875 147.25 238.332031 147.3125 238.546875 147.601562 C 238.761719 147.894531 238.703125 148.300781 238.410156 148.519531 L 219.316406 162.65625 C 219.195312 162.742188 219.0625 162.78125 218.925781 162.78125 "/><path style=" stroke:none;fill-rule:nonzero;fill:#000000;fill-opacity:1;" d="M 190.09375 137.898438 C 189.894531 137.898438 189.695312 137.808594 189.570312 137.636719 C 189.351562 137.34375 189.414062 136.933594 189.703125 136.71875 L 238.429688 100.652344 C 238.71875 100.433594 239.128906 100.496094 239.347656 100.785156 C 239.5625 101.078125 239.5 101.488281 239.210938 101.703125 L 190.484375 137.773438 C 190.367188 137.859375 190.234375 137.898438 190.09375 137.898438 "/><path style=" stroke:none;fill-rule:nonzero;fill:#000000;fill-opacity:1;" d="M 224.550781 121.675781 C 224.347656 121.675781 224.152344 121.582031 224.023438 121.410156 C 223.808594 121.117188 223.867188 120.710938 224.160156 120.496094 L 249.785156 101.523438 C 250.078125 101.308594 250.484375 101.371094 250.703125 101.664062 C 250.917969 101.949219 250.855469 102.363281 250.566406 102.578125 L 224.9375 121.546875 C 224.820312 121.632812 224.683594 121.675781 224.550781 121.675781 "/><path style=" stroke:none;fill-rule:nonzero;fill:#000000;fill-opacity:1;" d="M 72.296875 166.769531 C 71.855469 166.769531 71.414062 166.6875 70.988281 166.523438 C 70.066406 166.164062 69.339844 165.460938 68.941406 164.539062 C 68.132812 162.664062 68.972656 160.464844 70.816406 159.636719 C 71.148438 159.492188 71.535156 159.636719 71.683594 159.96875 C 71.832031 160.296875 71.683594 160.683594 71.355469 160.832031 C 70.160156 161.371094 69.617188 162.800781 70.144531 164.023438 C 70.402344 164.617188 70.871094 165.070312 71.464844 165.300781 C 72.042969 165.527344 72.675781 165.511719 73.242188 165.253906 C 74.433594 164.71875 74.976562 163.289062 74.449219 162.066406 C 74.308594 161.734375 74.460938 161.351562 74.792969 161.207031 C 75.125 161.0625 75.511719 161.21875 75.652344 161.550781 C 76.460938 163.425781 75.621094 165.625 73.777344 166.449219 C 73.304688 166.664062 72.800781 166.769531 72.296875 166.769531 "/><path style=" stroke:none;fill-rule:nonzero;fill:#ffffff;fill-opacity:1;" d="M 107.007812 20.839844 C 113.511719 19.140625 120.164062 23.039062 121.859375 29.539062 C 123.558594 36.039062 119.660156 42.683594 113.15625 44.382812 C 106.648438 46.078125 100 42.183594 98.300781 35.683594 C 96.605469 29.183594 100.503906 22.535156 107.007812 20.839844 Z M 85.8125 36.496094 L 87.007812 41.070312 L 92.167969 40.894531 C 92.636719 41.90625 93.179688 42.867188 93.792969 43.761719 L 91.011719 48.101562 L 94.332031 51.464844 L 98.71875 48.734375 C 99.617188 49.367188 100.566406 49.925781 101.558594 50.398438 L 101.316406 55.554688 L 105.875 56.808594 L 108.304688 52.261719 C 109.386719 52.359375 110.488281 52.363281 111.597656 52.277344 L 113.972656 56.863281 L 118.546875 55.667969 L 118.375 50.507812 C 119.382812 50.042969 120.34375 49.5 121.242188 48.886719 L 125.582031 51.667969 L 128.949219 48.347656 L 126.21875 43.96875 C 126.851562 43.070312 127.40625 42.121094 127.882812 41.128906 L 133.042969 41.371094 L 134.296875 36.8125 L 129.746094 34.386719 C 129.84375 33.300781 129.847656 32.203125 129.761719 31.09375 L 134.347656 28.722656 L 133.15625 24.152344 L 127.992188 24.324219 C 127.527344 23.3125 126.984375 22.355469 126.367188 21.460938 L 129.152344 17.117188 L 125.832031 13.757812 L 121.445312 16.484375 C 120.546875 15.851562 119.597656 15.296875 118.605469 14.820312 L 118.847656 9.664062 L 114.285156 8.410156 L 111.859375 12.960938 C 110.773438 12.863281 109.671875 12.859375 108.5625 12.945312 L 106.191406 8.359375 L 101.617188 9.554688 L 101.789062 14.710938 C 100.777344 15.175781 99.820312 15.71875 98.921875 16.332031 L 94.578125 13.550781 L 91.214844 16.871094 L 93.945312 21.253906 C 93.3125 22.152344 92.757812 23.101562 92.28125 24.089844 L 87.121094 23.851562 L 85.867188 28.410156 L 90.417969 30.832031 C 90.320312 31.917969 90.316406 33.019531 90.402344 34.128906 L 85.8125 36.496094 "/><path style=" stroke:none;fill-rule:nonzero;fill:#000000;fill-opacity:1;" d="M 109.179688 22.648438 C 103.035156 24.253906 99.339844 30.554688 100.941406 36.695312 C 102.546875 42.835938 108.851562 46.527344 114.996094 44.925781 C 121.140625 43.324219 124.835938 37.023438 123.234375 30.878906 C 122.457031 27.90625 120.566406 25.410156 117.910156 23.859375 C 115.257812 22.300781 112.15625 21.875 109.179688 22.648438 Z M 112.089844 46.609375 C 106.394531 46.609375 101.179688 42.785156 99.675781 37.023438 C 97.890625 30.183594 102.003906 23.167969 108.847656 21.382812 C 112.164062 20.515625 115.617188 20.996094 118.574219 22.726562 C 121.53125 24.457031 123.636719 27.238281 124.5 30.550781 C 125.367188 33.863281 124.886719 37.316406 123.15625 40.269531 C 121.421875 43.222656 118.644531 45.328125 115.328125 46.191406 C 114.246094 46.476562 113.160156 46.609375 112.089844 46.609375 Z M 113.605469 52.800781 C 113.847656 52.800781 114.074219 52.933594 114.1875 53.152344 L 116.320312 57.273438 L 119.882812 56.34375 L 119.726562 51.707031 C 119.71875 51.445312 119.867188 51.203125 120.105469 51.089844 C 121.082031 50.640625 122.015625 50.113281 122.878906 49.523438 C 123.09375 49.375 123.378906 49.371094 123.601562 49.511719 L 127.503906 52.011719 L 130.121094 49.429688 L 127.667969 45.492188 C 127.527344 45.265625 127.539062 44.980469 127.6875 44.765625 C 128.296875 43.902344 128.839844 42.976562 129.296875 42.023438 C 129.410156 41.789062 129.660156 41.640625 129.917969 41.652344 L 134.554688 41.867188 L 135.53125 38.320312 L 131.441406 36.140625 C 131.210938 36.015625 131.074219 35.765625 131.097656 35.503906 C 131.191406 34.464844 131.199219 33.394531 131.113281 32.320312 C 131.09375 32.058594 131.230469 31.808594 131.464844 31.6875 L 135.589844 29.558594 L 134.660156 26 L 130.019531 26.152344 C 129.761719 26.160156 129.515625 26.015625 129.40625 25.773438 C 128.953125 24.796875 128.425781 23.867188 127.835938 23.003906 C 127.6875 22.789062 127.683594 22.503906 127.824219 22.28125 L 130.324219 18.382812 L 127.738281 15.765625 L 123.796875 18.21875 C 123.574219 18.355469 123.289062 18.347656 123.074219 18.199219 C 122.207031 17.585938 121.285156 17.046875 120.328125 16.589844 C 120.09375 16.476562 119.945312 16.230469 119.957031 15.96875 L 120.175781 11.332031 L 116.625 10.359375 L 114.441406 14.445312 C 114.320312 14.675781 114.070312 14.816406 113.804688 14.789062 C 112.765625 14.695312 111.695312 14.6875 110.621094 14.773438 C 110.355469 14.792969 110.109375 14.65625 109.988281 14.421875 L 107.855469 10.304688 L 104.296875 11.230469 L 104.449219 15.867188 C 104.457031 16.132812 104.308594 16.371094 104.070312 16.484375 C 103.09375 16.933594 102.160156 17.460938 101.300781 18.050781 C 101.082031 18.199219 100.796875 18.203125 100.574219 18.0625 L 96.671875 15.5625 L 94.054688 18.148438 L 96.507812 22.082031 C 96.648438 22.308594 96.640625 22.589844 96.488281 22.808594 C 95.878906 23.671875 95.335938 24.59375 94.878906 25.550781 C 94.765625 25.789062 94.515625 25.929688 94.257812 25.921875 L 89.621094 25.707031 L 88.644531 29.253906 L 92.734375 31.433594 C 92.964844 31.558594 93.101562 31.808594 93.078125 32.070312 C 92.984375 33.109375 92.976562 34.183594 93.0625 35.253906 C 93.082031 35.515625 92.941406 35.765625 92.710938 35.886719 L 88.585938 38.015625 L 89.515625 41.574219 L 94.15625 41.417969 C 94.417969 41.414062 94.660156 41.558594 94.773438 41.800781 C 95.222656 42.777344 95.75 43.707031 96.339844 44.566406 C 96.488281 44.785156 96.496094 45.070312 96.351562 45.292969 L 93.851562 49.191406 L 96.4375 51.8125 L 100.378906 49.359375 C 100.601562 49.21875 100.886719 49.226562 101.101562 49.378906 C 101.964844 49.988281 102.890625 50.527344 103.847656 50.988281 C 104.082031 51.097656 104.230469 51.34375 104.21875 51.605469 L 104 56.242188 L 107.550781 57.214844 L 109.734375 53.128906 C 109.855469 52.898438 110.105469 52.761719 110.371094 52.785156 C 111.410156 52.882812 112.484375 52.886719 113.554688 52.800781 C 113.570312 52.800781 113.589844 52.800781 113.605469 52.800781 Z M 115.976562 58.691406 C 115.738281 58.691406 115.511719 58.5625 115.394531 58.339844 L 113.222656 54.136719 C 112.371094 54.1875 111.519531 54.179688 110.6875 54.125 L 108.460938 58.296875 C 108.316406 58.566406 108.003906 58.699219 107.710938 58.617188 L 103.148438 57.363281 C 102.855469 57.28125 102.65625 57.007812 102.667969 56.703125 L 102.886719 51.972656 C 102.136719 51.59375 101.40625 51.164062 100.707031 50.695312 L 96.683594 53.199219 C 96.425781 53.359375 96.085938 53.320312 95.871094 53.101562 L 92.550781 49.738281 C 92.335938 49.523438 92.300781 49.183594 92.464844 48.925781 L 95.019531 44.949219 C 94.558594 44.25 94.144531 43.507812 93.769531 42.742188 L 89.035156 42.902344 C 88.722656 42.90625 88.457031 42.707031 88.378906 42.414062 L 87.1875 37.839844 C 87.109375 37.546875 87.246094 37.234375 87.519531 37.09375 L 91.726562 34.917969 C 91.675781 34.070312 91.679688 33.222656 91.738281 32.386719 L 87.566406 30.164062 C 87.292969 30.019531 87.160156 29.707031 87.242188 29.410156 L 88.496094 24.855469 C 88.578125 24.558594 88.847656 24.359375 89.15625 24.375 L 93.890625 24.59375 C 94.269531 23.84375 94.699219 23.113281 95.167969 22.414062 L 92.664062 18.394531 C 92.503906 18.132812 92.542969 17.796875 92.761719 17.582031 L 96.125 14.261719 C 96.34375 14.046875 96.679688 14.011719 96.9375 14.175781 L 100.921875 16.726562 C 101.621094 16.273438 102.359375 15.851562 103.125 15.480469 L 102.96875 10.753906 C 102.957031 10.445312 103.160156 10.171875 103.457031 10.097656 L 108.03125 8.902344 C 108.328125 8.824219 108.640625 8.964844 108.78125 9.234375 L 110.953125 13.4375 C 111.808594 13.390625 112.65625 13.394531 113.488281 13.449219 L 115.714844 9.28125 C 115.859375 9.011719 116.171875 8.875 116.46875 8.957031 L 121.027344 10.210938 C 121.320312 10.292969 121.523438 10.566406 121.507812 10.875 L 121.289062 15.601562 C 122.039062 15.980469 122.769531 16.410156 123.46875 16.878906 L 127.492188 14.375 C 127.75 14.214844 128.085938 14.253906 128.304688 14.472656 L 131.625 17.835938 C 131.839844 18.054688 131.875 18.390625 131.710938 18.648438 L 129.160156 22.628906 C 129.613281 23.324219 130.03125 24.0625 130.40625 24.832031 L 135.140625 24.671875 C 135.453125 24.664062 135.71875 24.867188 135.796875 25.164062 L 136.988281 29.734375 C 137.066406 30.03125 136.929688 30.339844 136.65625 30.484375 L 132.449219 32.65625 C 132.5 33.507812 132.496094 34.355469 132.4375 35.1875 L 136.609375 37.410156 C 136.878906 37.554688 137.015625 37.871094 136.933594 38.160156 L 135.679688 42.722656 C 135.601562 43.015625 135.324219 43.210938 135.019531 43.199219 L 130.285156 42.980469 C 129.90625 43.730469 129.476562 44.464844 129.007812 45.160156 L 131.511719 49.179688 C 131.671875 49.441406 131.632812 49.777344 131.414062 49.992188 L 128.050781 53.3125 C 127.832031 53.527344 127.496094 53.5625 127.238281 53.398438 L 123.253906 50.847656 C 122.554688 51.304688 121.816406 51.722656 121.050781 52.09375 L 121.207031 56.824219 C 121.21875 57.128906 121.015625 57.402344 120.71875 57.480469 L 116.144531 58.671875 C 116.089844 58.6875 116.03125 58.691406 115.976562 58.691406 "/><path style=" stroke:none;fill-rule:nonzero;fill:#99b9ff;fill-opacity:1;" d="M 44.472656 55.171875 C 55.605469 52.269531 66.984375 58.933594 69.890625 70.058594 C 72.792969 81.183594 66.125 92.554688 54.992188 95.457031 C 43.863281 98.363281 32.480469 91.695312 29.578125 80.570312 C 26.671875 69.445312 33.339844 58.074219 44.472656 55.171875 Z M 8.207031 81.96875 L 10.25 89.789062 L 19.082031 89.496094 C 19.882812 91.222656 20.808594 92.863281 21.863281 94.398438 L 17.097656 101.824219 L 22.78125 107.582031 L 30.285156 102.910156 C 31.824219 103.992188 33.449219 104.941406 35.144531 105.753906 L 34.734375 114.578125 L 42.535156 116.722656 L 46.691406 108.941406 C 48.546875 109.109375 50.433594 109.117188 52.328125 108.96875 L 56.390625 116.816406 L 64.21875 114.769531 L 63.921875 105.945312 C 65.652344 105.148438 67.292969 104.21875 68.828125 103.167969 L 76.261719 107.929688 L 82.019531 102.246094 L 77.34375 94.746094 C 78.429688 93.210938 79.378906 91.589844 80.195312 89.894531 L 89.023438 90.304688 L 91.167969 82.507812 L 83.378906 78.351562 C 83.550781 76.5 83.558594 74.617188 83.40625 72.71875 L 91.257812 68.664062 L 89.214844 60.839844 L 80.382812 61.132812 C 79.585938 59.40625 78.65625 57.769531 77.605469 56.230469 L 82.367188 48.804688 L 76.683594 43.050781 L 69.179688 47.722656 C 67.640625 46.640625 66.015625 45.6875 64.320312 44.875 L 64.730469 36.050781 L 56.929688 33.90625 L 52.773438 41.6875 C 50.917969 41.523438 49.035156 41.515625 47.136719 41.664062 L 43.078125 33.816406 L 35.246094 35.859375 L 35.542969 44.6875 C 33.816406 45.484375 32.171875 46.410156 30.636719 47.460938 L 23.207031 42.703125 L 17.445312 48.382812 L 22.121094 55.882812 C 21.039062 57.417969 20.085938 59.042969 19.273438 60.738281 L 10.441406 60.328125 L 8.296875 68.125 L 16.085938 72.277344 C 15.917969 74.128906 15.910156 76.015625 16.058594 77.910156 L 8.207031 81.96875 "/><path style=" stroke:none;fill-rule:nonzero;fill:#000000;fill-opacity:1;" d="M 48.070312 57.820312 C 37.308594 60.625 30.835938 71.660156 33.644531 82.417969 C 35.003906 87.632812 38.316406 92 42.964844 94.722656 C 47.617188 97.445312 53.046875 98.199219 58.261719 96.839844 C 63.476562 95.476562 67.847656 92.167969 70.574219 87.523438 C 73.300781 82.878906 74.050781 77.449219 72.6875 72.238281 C 71.328125 67.023438 68.019531 62.65625 63.367188 59.933594 C 58.71875 57.210938 53.285156 56.457031 48.070312 57.820312 Z M 53.171875 98.800781 C 43.628906 98.804688 34.894531 92.394531 32.378906 82.75 C 29.386719 71.296875 36.277344 59.542969 47.742188 56.550781 C 53.296875 55.105469 59.082031 55.90625 64.03125 58.804688 C 68.984375 61.703125 72.507812 66.359375 73.957031 71.90625 C 75.40625 77.457031 74.605469 83.234375 71.703125 88.183594 C 68.800781 93.132812 64.144531 96.65625 58.59375 98.105469 C 56.78125 98.574219 54.960938 98.800781 53.171875 98.800781 Z M 55.765625 110.328125 C 56.007812 110.328125 56.234375 110.460938 56.347656 110.679688 L 60.164062 118.0625 L 66.980469 116.285156 L 66.703125 107.976562 C 66.695312 107.714844 66.84375 107.472656 67.082031 107.363281 C 68.777344 106.582031 70.394531 105.667969 71.894531 104.640625 C 72.109375 104.492188 72.394531 104.488281 72.617188 104.628906 L 79.605469 109.109375 L 84.621094 104.164062 L 80.222656 97.109375 C 80.085938 96.886719 80.09375 96.601562 80.242188 96.382812 C 81.300781 94.882812 82.242188 93.28125 83.035156 91.625 C 83.148438 91.386719 83.394531 91.242188 83.65625 91.25 L 91.964844 91.640625 L 93.832031 84.851562 L 86.507812 80.945312 C 86.273438 80.820312 86.136719 80.570312 86.164062 80.308594 C 86.324219 78.503906 86.335938 76.644531 86.1875 74.785156 C 86.167969 74.519531 86.308594 74.273438 86.542969 74.148438 L 93.925781 70.335938 L 92.148438 63.523438 L 83.839844 63.800781 C 83.582031 63.808594 83.332031 63.660156 83.222656 63.421875 C 82.4375 61.726562 81.523438 60.109375 80.496094 58.617188 C 80.347656 58.398438 80.34375 58.113281 80.484375 57.894531 L 84.96875 50.90625 L 80.019531 45.894531 L 72.960938 50.289062 C 72.738281 50.429688 72.453125 50.421875 72.234375 50.269531 C 70.734375 49.210938 69.128906 48.273438 67.472656 47.476562 C 67.234375 47.367188 67.089844 47.121094 67.101562 46.859375 L 67.488281 38.558594 L 60.695312 36.6875 L 56.785156 44.011719 C 56.660156 44.242188 56.410156 44.375 56.148438 44.355469 C 54.34375 44.191406 52.484375 44.183594 50.621094 44.328125 C 50.359375 44.347656 50.109375 44.210938 49.988281 43.976562 L 46.167969 36.597656 L 39.355469 38.375 L 39.632812 46.675781 C 39.640625 46.941406 39.492188 47.183594 39.25 47.292969 C 37.554688 48.078125 35.9375 48.992188 34.441406 50.015625 C 34.226562 50.167969 33.9375 50.167969 33.71875 50.027344 L 26.726562 45.550781 L 21.714844 50.496094 L 26.109375 57.550781 C 26.25 57.773438 26.242188 58.058594 26.089844 58.269531 C 25.035156 59.773438 24.09375 61.375 23.296875 63.03125 C 23.183594 63.269531 22.9375 63.417969 22.675781 63.40625 L 14.371094 63.015625 L 12.5 69.804688 L 19.828125 73.714844 C 20.058594 73.835938 20.195312 74.085938 20.171875 74.347656 C 20.007812 76.152344 20 78.011719 20.144531 79.875 C 20.164062 80.136719 20.027344 80.382812 19.792969 80.503906 L 12.40625 84.320312 L 14.1875 91.132812 L 22.496094 90.855469 C 22.765625 90.847656 23.003906 90.996094 23.113281 91.234375 C 23.894531 92.929688 24.8125 94.546875 25.835938 96.039062 C 25.984375 96.257812 25.988281 96.542969 25.847656 96.765625 L 21.367188 103.75 L 26.316406 108.761719 L 33.375 104.367188 C 33.597656 104.226562 33.882812 104.234375 34.097656 104.386719 C 35.601562 105.445312 37.207031 106.382812 38.863281 107.179688 C 39.101562 107.292969 39.246094 107.535156 39.234375 107.800781 L 38.847656 116.101562 L 45.640625 117.96875 L 49.546875 110.644531 C 49.671875 110.414062 49.925781 110.277344 50.1875 110.300781 C 51.992188 110.464844 53.851562 110.472656 55.714844 110.328125 C 55.730469 110.328125 55.746094 110.328125 55.765625 110.328125 Z M 59.824219 119.480469 C 59.582031 119.480469 59.355469 119.351562 59.242188 119.128906 L 55.378906 111.664062 C 53.742188 111.773438 52.101562 111.765625 50.5 111.644531 L 46.546875 119.042969 C 46.40625 119.316406 46.089844 119.449219 45.796875 119.371094 L 37.996094 117.222656 C 37.699219 117.144531 37.5 116.867188 37.511719 116.5625 L 37.902344 108.167969 C 36.453125 107.449219 35.039062 106.625 33.703125 105.707031 L 26.5625 110.148438 C 26.304688 110.308594 25.964844 110.269531 25.75 110.050781 L 20.066406 104.296875 C 19.851562 104.082031 19.816406 103.742188 19.980469 103.484375 L 24.511719 96.421875 C 23.621094 95.085938 22.816406 93.660156 22.109375 92.175781 L 13.707031 92.460938 C 13.390625 92.46875 13.128906 92.265625 13.050781 91.96875 L 11.007812 84.144531 C 10.929688 83.851562 11.066406 83.539062 11.339844 83.398438 L 18.808594 79.539062 C 18.699219 77.898438 18.707031 76.261719 18.832031 74.664062 L 11.421875 70.714844 C 11.152344 70.570312 11.019531 70.257812 11.097656 69.960938 L 13.246094 62.164062 C 13.324219 61.871094 13.597656 61.667969 13.90625 61.683594 L 22.304688 62.074219 C 23.027344 60.621094 23.855469 59.214844 24.769531 57.875 L 20.324219 50.742188 C 20.164062 50.484375 20.203125 50.148438 20.421875 49.929688 L 26.179688 44.25 C 26.398438 44.035156 26.734375 44 26.992188 44.164062 L 34.0625 48.695312 C 35.398438 47.800781 36.824219 46.996094 38.308594 46.289062 L 38.027344 37.894531 C 38.015625 37.589844 38.21875 37.316406 38.515625 37.238281 L 46.34375 35.199219 C 46.640625 35.117188 46.953125 35.253906 47.09375 35.527344 L 50.953125 42.992188 C 52.59375 42.882812 54.230469 42.890625 55.832031 43.015625 L 59.785156 35.613281 C 59.929688 35.339844 60.242188 35.207031 60.535156 35.289062 L 68.339844 37.433594 C 68.636719 37.515625 68.835938 37.789062 68.820312 38.09375 L 68.429688 46.488281 C 69.882812 47.207031 71.292969 48.03125 72.632812 48.949219 L 79.769531 44.507812 C 80.03125 44.347656 80.367188 44.386719 80.582031 44.605469 L 86.269531 50.359375 C 86.484375 50.574219 86.519531 50.914062 86.355469 51.171875 L 81.824219 58.238281 C 82.710938 59.570312 83.519531 60.996094 84.226562 62.480469 L 92.628906 62.199219 C 92.9375 62.183594 93.207031 62.390625 93.285156 62.6875 L 95.328125 70.511719 C 95.40625 70.808594 95.265625 71.117188 94.996094 71.257812 L 87.527344 75.117188 C 87.632812 76.757812 87.625 78.394531 87.503906 79.992188 L 94.910156 83.941406 C 95.179688 84.085938 95.316406 84.398438 95.234375 84.695312 L 93.089844 92.492188 C 93.007812 92.785156 92.734375 92.984375 92.425781 92.96875 L 84.027344 92.582031 C 83.308594 94.03125 82.480469 95.441406 81.5625 96.78125 L 86.007812 103.914062 C 86.171875 104.175781 86.132812 104.511719 85.914062 104.726562 L 80.15625 110.410156 C 79.9375 110.621094 79.597656 110.660156 79.339844 110.492188 L 72.273438 105.964844 C 70.933594 106.855469 69.511719 107.660156 68.027344 108.367188 L 68.308594 116.761719 C 68.316406 117.070312 68.113281 117.339844 67.820312 117.417969 L 59.988281 119.460938 C 59.933594 119.476562 59.878906 119.480469 59.824219 119.480469 "/><path style=" stroke:none;fill-rule:nonzero;fill:#5479f7;fill-opacity:1;" d="M 349.898438 367.375 L 260.347656 367.375 C 254.972656 367.375 250.953125 362.445312 252.035156 357.183594 L 265.621094 291.1875 C 266.765625 285.636719 271.652344 281.652344 277.320312 281.652344 L 354.132812 281.652344 L 349.898438 367.375 "/><path style=" stroke:none;fill-rule:nonzero;fill:#000000;fill-opacity:1;" d="M 277.320312 282.308594 C 271.988281 282.308594 267.335938 286.097656 266.261719 291.316406 L 252.675781 357.316406 C 252.199219 359.628906 252.785156 362.007812 254.277344 363.839844 C 255.773438 365.671875 257.984375 366.722656 260.351562 366.722656 L 349.273438 366.722656 L 353.445312 282.308594 Z M 349.898438 368.03125 L 260.351562 368.03125 C 257.589844 368.03125 255.003906 366.804688 253.261719 364.664062 C 251.519531 362.527344 250.835938 359.753906 251.394531 357.050781 L 264.976562 291.054688 C 266.179688 285.226562 271.367188 281 277.320312 281 L 354.132812 281 C 354.3125 281 354.480469 281.070312 354.609375 281.199219 C 354.730469 281.332031 354.796875 281.507812 354.785156 281.683594 L 350.550781 367.410156 C 350.535156 367.757812 350.246094 368.03125 349.898438 368.03125 "/><path style=" stroke:none;fill-rule:nonzero;fill:#99b9ff;fill-opacity:1;" d="M 361.359375 367.375 L 343.984375 367.375 C 338.609375 367.375 334.585938 362.445312 335.667969 357.183594 L 350.632812 284.492188 C 350.972656 282.839844 352.429688 281.652344 354.121094 281.652344 L 358.585938 281.652344 C 360.4375 281.652344 361.980469 283.074219 362.132812 284.917969 L 368.253906 359.902344 C 368.582031 363.929688 365.402344 367.375 361.359375 367.375 "/><path style=" stroke:none;fill-rule:nonzero;fill:#000000;fill-opacity:1;" d="M 354.117188 282.308594 C 352.746094 282.308594 351.550781 283.28125 351.277344 284.625 L 336.308594 357.316406 C 335.835938 359.628906 336.417969 362.007812 337.914062 363.839844 C 339.40625 365.671875 341.621094 366.722656 343.984375 366.722656 L 361.363281 366.722656 C 363.132812 366.722656 364.769531 366.003906 365.964844 364.707031 C 367.164062 363.40625 367.746094 361.71875 367.601562 359.957031 L 361.484375 284.972656 C 361.359375 283.480469 360.085938 282.308594 358.589844 282.308594 Z M 361.363281 368.03125 L 343.984375 368.03125 C 341.222656 368.03125 338.640625 366.804688 336.898438 364.664062 C 335.15625 362.527344 334.472656 359.753906 335.027344 357.050781 L 349.992188 284.359375 C 350.394531 282.410156 352.128906 281 354.117188 281 L 358.589844 281 C 360.765625 281 362.609375 282.695312 362.789062 284.867188 L 368.90625 359.851562 C 369.078125 361.949219 368.359375 364.042969 366.929688 365.59375 C 365.5 367.144531 363.46875 368.03125 361.363281 368.03125 "/><path style=" stroke:none;fill-rule:nonzero;fill:#000000;fill-opacity:1;" d="M 332.664062 316.953125 L 269.613281 316.953125 C 269.25 316.953125 268.957031 316.660156 268.957031 316.296875 C 268.957031 315.9375 269.25 315.640625 269.613281 315.640625 L 332.664062 315.640625 C 334.445312 315.640625 335.980469 314.433594 336.390625 312.699219 L 342.570312 286.625 C 342.652344 286.273438 343.007812 286.054688 343.359375 286.140625 C 343.710938 286.222656 343.925781 286.574219 343.84375 286.925781 L 337.664062 313 C 337.113281 315.328125 335.058594 316.953125 332.664062 316.953125 "/><path style=" stroke:none;fill-rule:nonzero;fill:#ffffff;fill-opacity:1;" d="M 310.632812 316.296875 L 308.671875 324.214844 C 308.351562 325.554688 307.15625 326.5 305.777344 326.5 L 291.894531 326.5 C 290.378906 326.5 289.285156 325.058594 289.691406 323.601562 L 291.726562 316.296875 L 310.632812 316.296875 "/><path style=" stroke:none;fill-rule:nonzero;fill:#000000;fill-opacity:1;" d="M 292.222656 316.953125 L 290.320312 323.777344 C 290.183594 324.273438 290.28125 324.792969 290.59375 325.203125 C 290.90625 325.609375 291.378906 325.84375 291.894531 325.84375 L 305.777344 325.84375 C 306.855469 325.84375 307.785156 325.113281 308.03125 324.0625 L 309.796875 316.953125 Z M 305.777344 327.15625 L 291.894531 327.15625 C 290.964844 327.15625 290.113281 326.730469 289.550781 325.996094 C 288.988281 325.253906 288.808594 324.320312 289.058594 323.429688 L 291.09375 316.121094 C 291.171875 315.839844 291.429688 315.640625 291.722656 315.640625 L 310.632812 315.640625 C 310.835938 315.640625 311.023438 315.734375 311.152344 315.894531 C 311.273438 316.054688 311.316406 316.257812 311.269531 316.453125 L 309.308594 324.371094 C 308.917969 326.007812 307.46875 327.15625 305.777344 327.15625 "/><path style=" stroke:none;fill-rule:nonzero;fill:#ffffff;fill-opacity:1;" d="M 340.097656 281.210938 L 341.707031 272.945312 C 342.453125 267.757812 339.710938 264.867188 335.765625 264.867188 L 299.546875 264.867188 C 295.601562 264.867188 291.859375 269 291.199219 272.945312 L 289.585938 281.210938 L 295.402344 281.210938 L 296.804688 274.175781 C 297.320312 271.105469 299.199219 269.554688 302.269531 269.554688 L 332.769531 269.554688 C 335.84375 269.554688 336.203125 271.105469 335.683594 274.175781 L 334.28125 281.210938 L 340.097656 281.210938 "/><path style=" stroke:none;fill-rule:nonzero;fill:#000000;fill-opacity:1;" d="M 335.078125 280.554688 L 339.554688 280.554688 L 341.066406 272.820312 C 341.402344 270.464844 340.984375 268.515625 339.847656 267.207031 C 338.890625 266.105469 337.480469 265.523438 335.761719 265.523438 L 299.546875 265.523438 C 295.863281 265.523438 292.441406 269.496094 291.84375 273.050781 L 290.378906 280.554688 L 294.859375 280.554688 L 296.160156 274.046875 C 296.730469 270.6875 298.839844 268.898438 302.269531 268.898438 L 332.769531 268.898438 C 334.257812 268.898438 335.234375 269.234375 335.851562 269.960938 C 336.738281 271.007812 336.605469 272.65625 336.332031 274.285156 Z M 340.09375 281.867188 L 334.28125 281.867188 C 334.082031 281.867188 333.898438 281.777344 333.773438 281.625 C 333.644531 281.476562 333.597656 281.273438 333.636719 281.082031 L 335.042969 274.046875 C 335.335938 272.289062 335.28125 271.316406 334.847656 270.804688 C 334.507812 270.402344 333.828125 270.207031 332.769531 270.207031 L 302.269531 270.207031 C 299.488281 270.207031 297.914062 271.542969 297.449219 274.285156 L 296.039062 281.339844 C 295.980469 281.644531 295.710938 281.867188 295.398438 281.867188 L 289.582031 281.867188 C 289.386719 281.867188 289.199219 281.777344 289.074219 281.628906 C 288.953125 281.476562 288.898438 281.277344 288.9375 281.085938 L 290.554688 272.820312 C 291.238281 268.757812 295.101562 264.210938 299.546875 264.210938 L 335.761719 264.210938 C 337.839844 264.210938 339.644531 264.972656 340.839844 266.347656 C 342.230469 267.953125 342.753906 270.265625 342.355469 273.035156 L 340.738281 281.335938 C 340.675781 281.644531 340.40625 281.867188 340.09375 281.867188 "/><path style=" stroke:none;fill-rule:nonzero;fill:#99b9ff;fill-opacity:1;" d="M 333.359375 263.5 L 302.730469 263.5 C 301.496094 263.5 300.328125 264.496094 300.121094 265.730469 L 299.671875 268.40625 C 299.460938 269.640625 300.292969 270.636719 301.527344 270.636719 L 332.15625 270.636719 C 333.386719 270.636719 334.558594 269.640625 334.765625 268.40625 L 335.21875 265.730469 C 335.421875 264.496094 334.59375 263.5 333.359375 263.5 "/><path style=" stroke:none;fill-rule:nonzero;fill:#000000;fill-opacity:1;" d="M 302.734375 264.152344 C 301.820312 264.152344 300.921875 264.925781 300.765625 265.839844 L 300.3125 268.515625 C 300.246094 268.921875 300.335938 269.296875 300.566406 269.570312 C 300.792969 269.835938 301.132812 269.984375 301.527344 269.984375 L 332.15625 269.984375 C 333.066406 269.984375 333.964844 269.210938 334.121094 268.296875 L 334.570312 265.625 C 334.636719 265.214844 334.550781 264.835938 334.320312 264.566406 C 334.09375 264.300781 333.75 264.152344 333.359375 264.152344 Z M 332.15625 271.292969 L 301.527344 271.292969 C 300.742188 271.292969 300.046875 270.984375 299.566406 270.417969 C 299.082031 269.84375 298.890625 269.09375 299.023438 268.296875 L 299.472656 265.625 C 299.738281 264.066406 301.167969 262.84375 302.734375 262.84375 L 333.359375 262.84375 C 334.144531 262.84375 334.839844 263.15625 335.316406 263.71875 C 335.800781 264.289062 335.996094 265.046875 335.863281 265.839844 L 335.410156 268.515625 C 335.148438 270.074219 333.71875 271.292969 332.15625 271.292969 "/><path style=" stroke:none;fill-rule:nonzero;fill:#caddff;fill-opacity:1;" d="M 343.820312 357.601562 C 343.589844 357.601562 343.371094 357.484375 343.25 357.269531 C 343.070312 356.957031 343.179688 356.558594 343.492188 356.378906 L 355.164062 349.730469 L 355.164062 291.332031 C 355.164062 290.972656 355.460938 290.679688 355.824219 290.679688 C 356.183594 290.679688 356.476562 290.972656 356.476562 291.332031 L 356.476562 350.113281 C 356.476562 350.347656 356.351562 350.566406 356.148438 350.679688 L 344.144531 357.515625 C 344.039062 357.574219 343.929688 357.601562 343.820312 357.601562 "/></g></svg>